<?xml version="1.0" encoding="utf-8" standalone="no"?>
<!DOCTYPE svg PUBLIC "-//W3C//DTD SVG 1.1//EN"
  "http://www.w3.org/Graphics/SVG/1.1/DTD/svg11.dtd">
<svg xmlns:xlink="http://www.w3.org/1999/xlink" width="576pt" height="360pt" viewBox="0 0 576 360" xmlns="http://www.w3.org/2000/svg" version="1.1">
 <metadata>
  <rdf:RDF xmlns:dc="http://purl.org/dc/elements/1.1/" xmlns:cc="http://creativecommons.org/ns#" xmlns:rdf="http://www.w3.org/1999/02/22-rdf-syntax-ns#">
   <cc:Work>
    <dc:type rdf:resource="http://purl.org/dc/dcmitype/StillImage"/>
    <dc:date>2023-10-01T01:30:13.780829</dc:date>
    <dc:format>image/svg+xml</dc:format>
    <dc:creator>
     <cc:Agent>
      <dc:title>Matplotlib v3.7.0, https://matplotlib.org/</dc:title>
     </cc:Agent>
    </dc:creator>
   </cc:Work>
  </rdf:RDF>
 </metadata>
 <defs>
  <style type="text/css">*{stroke-linejoin: round; stroke-linecap: butt}</style>
 </defs>
 <g id="figure_1">
  <g id="patch_1">
   <path d="M 0 360 
L 576 360 
L 576 0 
L 0 0 
z
" style="fill: #ffffff"/>
  </g>
  <g id="axes_1">
   <g id="patch_2">
    <path d="M 15.561177 211.048198 
L 572.99976 211.048198 
L 572.99976 17.69649 
L 15.561177 17.69649 
z
" style="fill: #eaeaf2"/>
   </g>
   <g id="matplotlib.axis_1">
    <g id="xtick_1">
     <g id="line2d_1">
      <path d="M 70.708845 211.048198 
L 70.708845 17.69649 
" clip-path="url(#p8ceeda8865)" style="fill: none; stroke: #ffffff; stroke-linecap: round"/>
     </g>
     <g id="line2d_2"/>
     <g id="text_1">
      <!-- AI Engineering -->
      <g style="fill: #262626" transform="translate(73.294782 283.645073) rotate(-90) scale(0.1 -0.1)">
       <defs>
        <path id="LiberationSans-41" d="M 3647 0 
L 3144 1288 
L 1138 1288 
L 631 0 
L 13 0 
L 1809 4403 
L 2488 4403 
L 4256 0 
L 3647 0 
z
M 2400 3206 
Q 2350 3331 2304 3459 
Q 2259 3588 2225 3692 
Q 2191 3797 2167 3867 
Q 2144 3938 2141 3953 
Q 2134 3938 2112 3866 
Q 2091 3794 2055 3687 
Q 2019 3581 1973 3453 
Q 1928 3325 1881 3200 
L 1319 1753 
L 2966 1753 
L 2400 3206 
z
" transform="scale(0.015625)"/>
        <path id="LiberationSans-49" d="M 591 0 
L 591 4403 
L 1188 4403 
L 1188 0 
L 591 0 
z
" transform="scale(0.015625)"/>
        <path id="LiberationSans-20" transform="scale(0.015625)"/>
        <path id="LiberationSans-45" d="M 525 0 
L 525 4403 
L 3866 4403 
L 3866 3916 
L 1122 3916 
L 1122 2503 
L 3678 2503 
L 3678 2022 
L 1122 2022 
L 1122 488 
L 3994 488 
L 3994 0 
L 525 0 
z
" transform="scale(0.015625)"/>
        <path id="LiberationSans-6e" d="M 2578 0 
L 2578 2144 
Q 2578 2391 2542 2556 
Q 2506 2722 2425 2823 
Q 2344 2925 2211 2967 
Q 2078 3009 1881 3009 
Q 1681 3009 1520 2939 
Q 1359 2869 1245 2736 
Q 1131 2603 1068 2408 
Q 1006 2213 1006 1959 
L 1006 0 
L 444 0 
L 444 2659 
Q 444 2766 442 2883 
Q 441 3000 437 3104 
Q 434 3209 431 3284 
Q 428 3359 425 3381 
L 956 3381 
Q 959 3366 962 3297 
Q 966 3228 970 3139 
Q 975 3050 978 2958 
Q 981 2866 981 2803 
L 991 2803 
Q 1072 2950 1169 3069 
Q 1266 3188 1394 3270 
Q 1522 3353 1687 3398 
Q 1853 3444 2072 3444 
Q 2353 3444 2556 3375 
Q 2759 3306 2890 3162 
Q 3022 3019 3083 2792 
Q 3144 2566 3144 2253 
L 3144 0 
L 2578 0 
z
" transform="scale(0.015625)"/>
        <path id="LiberationSans-67" d="M 1713 -1328 
Q 1422 -1328 1197 -1268 
Q 972 -1209 812 -1098 
Q 653 -988 553 -834 
Q 453 -681 409 -494 
L 975 -413 
Q 1031 -647 1223 -773 
Q 1416 -900 1728 -900 
Q 1919 -900 2075 -847 
Q 2231 -794 2340 -676 
Q 2450 -559 2509 -371 
Q 2569 -184 2569 84 
L 2569 628 
L 2563 628 
Q 2500 500 2408 383 
Q 2316 266 2183 175 
Q 2050 84 1875 29 
Q 1700 -25 1475 -25 
Q 1153 -25 923 83 
Q 694 191 548 406 
Q 403 622 336 942 
Q 269 1263 269 1684 
Q 269 2091 336 2416 
Q 403 2741 554 2967 
Q 706 3194 948 3314 
Q 1191 3434 1538 3434 
Q 1897 3434 2161 3270 
Q 2425 3106 2569 2803 
L 2575 2803 
Q 2575 2881 2579 2978 
Q 2584 3075 2589 3161 
Q 2594 3247 2600 3309 
Q 2606 3372 2613 3381 
L 3147 3381 
Q 3144 3353 3141 3286 
Q 3138 3219 3134 3125 
Q 3131 3031 3129 2917 
Q 3128 2803 3128 2681 
L 3128 97 
Q 3128 -613 2779 -970 
Q 2431 -1328 1713 -1328 
z
M 2569 1691 
Q 2569 2044 2492 2295 
Q 2416 2547 2291 2706 
Q 2166 2866 2005 2941 
Q 1844 3016 1675 3016 
Q 1459 3016 1304 2941 
Q 1150 2866 1048 2705 
Q 947 2544 898 2292 
Q 850 2041 850 1691 
Q 850 1325 898 1076 
Q 947 828 1047 675 
Q 1147 522 1300 456 
Q 1453 391 1666 391 
Q 1834 391 1995 462 
Q 2156 534 2284 690 
Q 2413 847 2491 1094 
Q 2569 1341 2569 1691 
z
" transform="scale(0.015625)"/>
        <path id="LiberationSans-69" d="M 428 4100 
L 428 4638 
L 991 4638 
L 991 4100 
L 428 4100 
z
M 428 0 
L 428 3381 
L 991 3381 
L 991 0 
L 428 0 
z
" transform="scale(0.015625)"/>
        <path id="LiberationSans-65" d="M 863 1572 
Q 863 1306 917 1082 
Q 972 859 1086 698 
Q 1200 538 1378 448 
Q 1556 359 1806 359 
Q 2172 359 2392 506 
Q 2613 653 2691 878 
L 3184 738 
Q 3131 597 3036 455 
Q 2941 313 2781 198 
Q 2622 84 2383 10 
Q 2144 -63 1806 -63 
Q 1056 -63 664 384 
Q 272 831 272 1713 
Q 272 2188 390 2517 
Q 509 2847 715 3053 
Q 922 3259 1197 3351 
Q 1472 3444 1784 3444 
Q 2209 3444 2495 3306 
Q 2781 3169 2954 2926 
Q 3128 2684 3201 2356 
Q 3275 2028 3275 1647 
L 3275 1572 
L 863 1572 
z
M 2694 2003 
Q 2647 2538 2422 2783 
Q 2197 3028 1775 3028 
Q 1634 3028 1479 2983 
Q 1325 2938 1194 2822 
Q 1063 2706 972 2507 
Q 881 2309 869 2003 
L 2694 2003 
z
" transform="scale(0.015625)"/>
        <path id="LiberationSans-72" d="M 444 0 
L 444 2594 
Q 444 2700 442 2811 
Q 441 2922 437 3025 
Q 434 3128 431 3218 
Q 428 3309 425 3381 
L 956 3381 
Q 959 3309 964 3217 
Q 969 3125 973 3028 
Q 978 2931 979 2842 
Q 981 2753 981 2691 
L 994 2691 
Q 1053 2884 1120 3026 
Q 1188 3169 1278 3261 
Q 1369 3353 1494 3398 
Q 1619 3444 1797 3444 
Q 1866 3444 1928 3433 
Q 1991 3422 2025 3413 
L 2025 2897 
Q 1969 2913 1894 2920 
Q 1819 2928 1725 2928 
Q 1531 2928 1395 2840 
Q 1259 2753 1173 2598 
Q 1088 2444 1047 2230 
Q 1006 2016 1006 1763 
L 1006 0 
L 444 0 
z
" transform="scale(0.015625)"/>
       </defs>
       <use xlink:href="#LiberationSans-41"/>
       <use xlink:href="#LiberationSans-49" x="66.699219"/>
       <use xlink:href="#LiberationSans-20" x="94.482422"/>
       <use xlink:href="#LiberationSans-45" x="122.265625"/>
       <use xlink:href="#LiberationSans-6e" x="188.964844"/>
       <use xlink:href="#LiberationSans-67" x="244.580078"/>
       <use xlink:href="#LiberationSans-69" x="300.195312"/>
       <use xlink:href="#LiberationSans-6e" x="322.412109"/>
       <use xlink:href="#LiberationSans-65" x="378.027344"/>
       <use xlink:href="#LiberationSans-65" x="433.642578"/>
       <use xlink:href="#LiberationSans-72" x="489.257812"/>
       <use xlink:href="#LiberationSans-69" x="522.558594"/>
       <use xlink:href="#LiberationSans-6e" x="544.775391"/>
       <use xlink:href="#LiberationSans-67" x="600.390625"/>
      </g>
     </g>
    </g>
    <g id="xtick_2">
     <g id="line2d_3">
      <path d="M 145.232719 211.048198 
L 145.232719 17.69649 
" clip-path="url(#p8ceeda8865)" style="fill: none; stroke: #ffffff; stroke-linecap: round"/>
     </g>
     <g id="line2d_4"/>
     <g id="text_2">
      <!-- Data Science -->
      <g style="fill: #262626" transform="translate(147.818657 277.523198) rotate(-90) scale(0.1 -0.1)">
       <defs>
        <path id="LiberationSans-44" d="M 4316 2247 
Q 4316 1697 4150 1276 
Q 3984 856 3696 573 
Q 3409 291 3017 145 
Q 2625 0 2172 0 
L 525 0 
L 525 4403 
L 1981 4403 
Q 2491 4403 2920 4276 
Q 3350 4150 3659 3886 
Q 3969 3622 4142 3215 
Q 4316 2809 4316 2247 
z
M 3716 2247 
Q 3716 2694 3587 3011 
Q 3459 3328 3228 3531 
Q 2997 3734 2675 3829 
Q 2353 3925 1969 3925 
L 1122 3925 
L 1122 478 
L 2103 478 
Q 2450 478 2745 590 
Q 3041 703 3256 925 
Q 3472 1147 3594 1478 
Q 3716 1809 3716 2247 
z
" transform="scale(0.015625)"/>
        <path id="LiberationSans-61" d="M 1294 -63 
Q 784 -63 528 206 
Q 272 475 272 944 
Q 272 1278 398 1492 
Q 525 1706 729 1828 
Q 934 1950 1196 1997 
Q 1459 2044 1731 2050 
L 2491 2063 
L 2491 2247 
Q 2491 2456 2447 2603 
Q 2403 2750 2312 2840 
Q 2222 2931 2086 2973 
Q 1950 3016 1766 3016 
Q 1603 3016 1472 2992 
Q 1341 2969 1244 2908 
Q 1147 2847 1087 2742 
Q 1028 2638 1009 2478 
L 422 2531 
Q 453 2731 540 2898 
Q 628 3066 789 3187 
Q 950 3309 1192 3376 
Q 1434 3444 1778 3444 
Q 2416 3444 2737 3151 
Q 3059 2859 3059 2306 
L 3059 850 
Q 3059 600 3125 473 
Q 3191 347 3375 347 
Q 3422 347 3469 353 
Q 3516 359 3559 369 
L 3559 19 
Q 3453 -6 3348 -18 
Q 3244 -31 3125 -31 
Q 2966 -31 2852 11 
Q 2738 53 2666 139 
Q 2594 225 2556 351 
Q 2519 478 2509 647 
L 2491 647 
Q 2400 484 2292 353 
Q 2184 222 2040 130 
Q 1897 38 1714 -12 
Q 1531 -63 1294 -63 
z
M 1422 359 
Q 1691 359 1892 457 
Q 2094 556 2226 709 
Q 2359 863 2425 1044 
Q 2491 1225 2491 1391 
L 2491 1669 
L 1875 1656 
Q 1669 1653 1483 1626 
Q 1297 1600 1156 1522 
Q 1016 1444 933 1303 
Q 850 1163 850 934 
Q 850 659 998 509 
Q 1147 359 1422 359 
z
" transform="scale(0.015625)"/>
        <path id="LiberationSans-74" d="M 1731 25 
Q 1603 -9 1470 -29 
Q 1338 -50 1163 -50 
Q 488 -50 488 716 
L 488 2972 
L 97 2972 
L 97 3381 
L 509 3381 
L 675 4138 
L 1050 4138 
L 1050 3381 
L 1675 3381 
L 1675 2972 
L 1050 2972 
L 1050 838 
Q 1050 594 1129 495 
Q 1209 397 1406 397 
Q 1488 397 1564 409 
Q 1641 422 1731 441 
L 1731 25 
z
" transform="scale(0.015625)"/>
        <path id="LiberationSans-53" d="M 3975 1216 
Q 3975 938 3867 703 
Q 3759 469 3534 298 
Q 3309 128 2967 32 
Q 2625 -63 2156 -63 
Q 1334 -63 875 225 
Q 416 513 291 1056 
L 869 1172 
Q 913 1000 1003 859 
Q 1094 719 1248 617 
Q 1403 516 1631 459 
Q 1859 403 2178 403 
Q 2444 403 2666 448 
Q 2888 494 3047 587 
Q 3206 681 3295 829 
Q 3384 978 3384 1184 
Q 3384 1400 3286 1534 
Q 3188 1669 3009 1756 
Q 2831 1844 2584 1903 
Q 2338 1963 2038 2031 
Q 1853 2072 1667 2120 
Q 1481 2169 1311 2236 
Q 1141 2303 991 2393 
Q 841 2484 731 2611 
Q 622 2738 559 2905 
Q 497 3072 497 3291 
Q 497 3603 623 3826 
Q 750 4050 975 4194 
Q 1200 4338 1506 4403 
Q 1813 4469 2169 4469 
Q 2578 4469 2868 4405 
Q 3159 4341 3359 4212 
Q 3559 4084 3679 3895 
Q 3800 3706 3872 3456 
L 3284 3353 
Q 3241 3513 3158 3638 
Q 3075 3763 2940 3847 
Q 2806 3931 2614 3975 
Q 2422 4019 2163 4019 
Q 1856 4019 1648 3964 
Q 1441 3909 1314 3815 
Q 1188 3722 1133 3595 
Q 1078 3469 1078 3322 
Q 1078 3125 1176 2998 
Q 1275 2872 1444 2787 
Q 1613 2703 1834 2647 
Q 2056 2591 2306 2534 
Q 2509 2488 2711 2439 
Q 2913 2391 3097 2323 
Q 3281 2256 3442 2165 
Q 3603 2075 3722 1944 
Q 3841 1813 3908 1634 
Q 3975 1456 3975 1216 
z
" transform="scale(0.015625)"/>
        <path id="LiberationSans-63" d="M 859 1706 
Q 859 1416 901 1172 
Q 944 928 1044 751 
Q 1144 575 1308 478 
Q 1472 381 1713 381 
Q 2013 381 2214 543 
Q 2416 706 2463 1044 
L 3031 1006 
Q 3003 797 2909 603 
Q 2816 409 2655 262 
Q 2494 116 2262 26 
Q 2031 -63 1728 -63 
Q 1331 -63 1053 71 
Q 775 206 601 442 
Q 428 678 350 998 
Q 272 1319 272 1694 
Q 272 2034 328 2295 
Q 384 2556 486 2751 
Q 588 2947 725 3080 
Q 863 3213 1023 3292 
Q 1184 3372 1362 3408 
Q 1541 3444 1722 3444 
Q 2006 3444 2228 3366 
Q 2450 3288 2611 3152 
Q 2772 3016 2872 2831 
Q 2972 2647 3013 2434 
L 2434 2391 
Q 2391 2672 2212 2837 
Q 2034 3003 1706 3003 
Q 1466 3003 1305 2923 
Q 1144 2844 1044 2683 
Q 944 2522 901 2278 
Q 859 2034 859 1706 
z
" transform="scale(0.015625)"/>
       </defs>
       <use xlink:href="#LiberationSans-44"/>
       <use xlink:href="#LiberationSans-61" x="72.216797"/>
       <use xlink:href="#LiberationSans-74" x="127.832031"/>
       <use xlink:href="#LiberationSans-61" x="155.615234"/>
       <use xlink:href="#LiberationSans-20" x="211.230469"/>
       <use xlink:href="#LiberationSans-53" x="239.013672"/>
       <use xlink:href="#LiberationSans-63" x="305.712891"/>
       <use xlink:href="#LiberationSans-69" x="355.712891"/>
       <use xlink:href="#LiberationSans-65" x="377.929688"/>
       <use xlink:href="#LiberationSans-6e" x="433.544922"/>
       <use xlink:href="#LiberationSans-63" x="489.160156"/>
       <use xlink:href="#LiberationSans-65" x="539.160156"/>
      </g>
     </g>
    </g>
    <g id="xtick_3">
     <g id="line2d_5">
      <path d="M 219.756594 211.048198 
L 219.756594 17.69649 
" clip-path="url(#p8ceeda8865)" style="fill: none; stroke: #ffffff; stroke-linecap: round"/>
     </g>
     <g id="line2d_6"/>
     <g id="text_3">
      <!-- Verteilte Informationssysteme -->
      <g style="fill: #262626" transform="translate(222.342532 349.209135) rotate(-90) scale(0.1 -0.1)">
       <defs>
        <path id="LiberationSans-56" d="M 2444 0 
L 1825 0 
L 28 4403 
L 656 4403 
L 1875 1303 
Q 1922 1163 1969 1023 
Q 2016 884 2053 775 
Q 2097 647 2138 525 
Q 2175 641 2219 769 
Q 2256 878 2301 1015 
Q 2347 1153 2400 1303 
L 3613 4403 
L 4241 4403 
L 2444 0 
z
" transform="scale(0.015625)"/>
        <path id="LiberationSans-6c" d="M 431 0 
L 431 4638 
L 994 4638 
L 994 0 
L 431 0 
z
" transform="scale(0.015625)"/>
        <path id="LiberationSans-66" d="M 1128 2972 
L 1128 0 
L 566 0 
L 566 2972 
L 91 2972 
L 91 3381 
L 566 3381 
L 566 3763 
Q 566 3947 600 4105 
Q 634 4263 726 4380 
Q 819 4497 978 4564 
Q 1138 4631 1391 4631 
Q 1491 4631 1598 4622 
Q 1706 4613 1788 4594 
L 1788 4166 
Q 1734 4175 1664 4183 
Q 1594 4191 1538 4191 
Q 1413 4191 1333 4156 
Q 1253 4122 1208 4058 
Q 1163 3994 1145 3900 
Q 1128 3806 1128 3684 
L 1128 3381 
L 1788 3381 
L 1788 2972 
L 1128 2972 
z
" transform="scale(0.015625)"/>
        <path id="LiberationSans-6f" d="M 3291 1694 
Q 3291 806 2900 371 
Q 2509 -63 1766 -63 
Q 1413 -63 1134 43 
Q 856 150 664 369 
Q 472 588 370 917 
Q 269 1247 269 1694 
Q 269 3444 1784 3444 
Q 2178 3444 2464 3334 
Q 2750 3225 2933 3006 
Q 3116 2788 3203 2459 
Q 3291 2131 3291 1694 
z
M 2700 1694 
Q 2700 2088 2639 2344 
Q 2578 2600 2461 2753 
Q 2344 2906 2175 2967 
Q 2006 3028 1794 3028 
Q 1578 3028 1404 2964 
Q 1231 2900 1109 2745 
Q 988 2591 923 2334 
Q 859 2078 859 1694 
Q 859 1300 928 1042 
Q 997 784 1117 631 
Q 1238 478 1402 415 
Q 1566 353 1759 353 
Q 1975 353 2150 414 
Q 2325 475 2447 628 
Q 2569 781 2634 1040 
Q 2700 1300 2700 1694 
z
" transform="scale(0.015625)"/>
        <path id="LiberationSans-6d" d="M 2400 0 
L 2400 2144 
Q 2400 2391 2369 2556 
Q 2338 2722 2264 2823 
Q 2191 2925 2072 2967 
Q 1953 3009 1781 3009 
Q 1603 3009 1459 2939 
Q 1316 2869 1214 2736 
Q 1113 2603 1058 2408 
Q 1003 2213 1003 1959 
L 1003 0 
L 444 0 
L 444 2659 
Q 444 2766 442 2883 
Q 441 3000 437 3104 
Q 434 3209 431 3284 
Q 428 3359 425 3381 
L 956 3381 
Q 959 3366 962 3297 
Q 966 3228 970 3139 
Q 975 3050 978 2958 
Q 981 2866 981 2803 
L 991 2803 
Q 1066 2950 1153 3069 
Q 1241 3188 1358 3270 
Q 1475 3353 1626 3398 
Q 1778 3444 1978 3444 
Q 2363 3444 2586 3291 
Q 2809 3138 2897 2803 
L 2906 2803 
Q 2981 2950 3075 3069 
Q 3169 3188 3294 3270 
Q 3419 3353 3575 3398 
Q 3731 3444 3931 3444 
Q 4188 3444 4373 3375 
Q 4559 3306 4678 3162 
Q 4797 3019 4853 2792 
Q 4909 2566 4909 2253 
L 4909 0 
L 4353 0 
L 4353 2144 
Q 4353 2391 4322 2556 
Q 4291 2722 4217 2823 
Q 4144 2925 4025 2967 
Q 3906 3009 3734 3009 
Q 3556 3009 3412 2942 
Q 3269 2875 3167 2744 
Q 3066 2613 3011 2416 
Q 2956 2219 2956 1959 
L 2956 0 
L 2400 0 
z
" transform="scale(0.015625)"/>
        <path id="LiberationSans-73" d="M 2969 934 
Q 2969 697 2876 511 
Q 2784 325 2609 198 
Q 2434 72 2179 4 
Q 1925 -63 1597 -63 
Q 1303 -63 1067 -17 
Q 831 28 653 128 
Q 475 228 354 392 
Q 234 556 178 794 
L 675 891 
Q 747 619 972 492 
Q 1197 366 1597 366 
Q 1778 366 1929 391 
Q 2081 416 2190 477 
Q 2300 538 2361 639 
Q 2422 741 2422 891 
Q 2422 1044 2350 1142 
Q 2278 1241 2150 1306 
Q 2022 1372 1839 1420 
Q 1656 1469 1438 1528 
Q 1234 1581 1034 1647 
Q 834 1713 673 1820 
Q 513 1928 413 2087 
Q 313 2247 313 2488 
Q 313 2950 642 3192 
Q 972 3434 1603 3434 
Q 2163 3434 2492 3237 
Q 2822 3041 2909 2606 
L 2403 2544 
Q 2375 2675 2300 2764 
Q 2225 2853 2119 2908 
Q 2013 2963 1880 2986 
Q 1747 3009 1603 3009 
Q 1222 3009 1040 2893 
Q 859 2778 859 2544 
Q 859 2406 926 2317 
Q 994 2228 1114 2167 
Q 1234 2106 1403 2061 
Q 1572 2016 1775 1966 
Q 1909 1931 2050 1892 
Q 2191 1853 2323 1798 
Q 2456 1744 2573 1670 
Q 2691 1597 2778 1494 
Q 2866 1391 2917 1253 
Q 2969 1116 2969 934 
z
" transform="scale(0.015625)"/>
        <path id="LiberationSans-79" d="M 1888 0 
Q 1769 -306 1645 -551 
Q 1522 -797 1369 -970 
Q 1216 -1144 1028 -1236 
Q 841 -1328 597 -1328 
Q 491 -1328 400 -1322 
Q 309 -1316 209 -1294 
L 209 -872 
Q 269 -881 344 -886 
Q 419 -891 472 -891 
Q 719 -891 931 -706 
Q 1144 -522 1303 -119 
L 1356 16 
L 16 3381 
L 616 3381 
L 1328 1513 
Q 1359 1428 1407 1287 
Q 1456 1147 1504 1006 
Q 1553 866 1590 753 
Q 1628 641 1634 613 
Q 1644 647 1680 748 
Q 1716 850 1761 975 
Q 1806 1100 1853 1228 
Q 1900 1356 1931 1450 
L 2594 3381 
L 3188 3381 
L 1888 0 
z
" transform="scale(0.015625)"/>
       </defs>
       <use xlink:href="#LiberationSans-56"/>
       <use xlink:href="#LiberationSans-65" x="61.199219"/>
       <use xlink:href="#LiberationSans-72" x="116.814453"/>
       <use xlink:href="#LiberationSans-74" x="150.115234"/>
       <use xlink:href="#LiberationSans-65" x="177.898438"/>
       <use xlink:href="#LiberationSans-69" x="233.513672"/>
       <use xlink:href="#LiberationSans-6c" x="255.730469"/>
       <use xlink:href="#LiberationSans-74" x="277.947266"/>
       <use xlink:href="#LiberationSans-65" x="305.730469"/>
       <use xlink:href="#LiberationSans-20" x="361.345703"/>
       <use xlink:href="#LiberationSans-49" x="389.128906"/>
       <use xlink:href="#LiberationSans-6e" x="416.912109"/>
       <use xlink:href="#LiberationSans-66" x="472.527344"/>
       <use xlink:href="#LiberationSans-6f" x="500.310547"/>
       <use xlink:href="#LiberationSans-72" x="555.925781"/>
       <use xlink:href="#LiberationSans-6d" x="589.226562"/>
       <use xlink:href="#LiberationSans-61" x="672.527344"/>
       <use xlink:href="#LiberationSans-74" x="728.142578"/>
       <use xlink:href="#LiberationSans-69" x="755.925781"/>
       <use xlink:href="#LiberationSans-6f" x="778.142578"/>
       <use xlink:href="#LiberationSans-6e" x="833.757812"/>
       <use xlink:href="#LiberationSans-73" x="889.373047"/>
       <use xlink:href="#LiberationSans-73" x="939.373047"/>
       <use xlink:href="#LiberationSans-79" x="989.373047"/>
       <use xlink:href="#LiberationSans-73" x="1039.373047"/>
       <use xlink:href="#LiberationSans-74" x="1089.373047"/>
       <use xlink:href="#LiberationSans-65" x="1117.15625"/>
       <use xlink:href="#LiberationSans-6d" x="1172.771484"/>
       <use xlink:href="#LiberationSans-65" x="1256.072266"/>
      </g>
     </g>
    </g>
    <g id="xtick_4">
     <g id="line2d_7">
      <path d="M 294.280469 211.048198 
L 294.280469 17.69649 
" clip-path="url(#p8ceeda8865)" style="fill: none; stroke: #ffffff; stroke-linecap: round"/>
     </g>
     <g id="line2d_8"/>
     <g id="text_4">
      <!-- Didaktik der Mathematik -->
      <g style="fill: #262626" transform="translate(296.866406 325.302885) rotate(-90) scale(0.1 -0.1)">
       <defs>
        <path id="LiberationSans-64" d="M 2566 544 
Q 2409 219 2151 78 
Q 1894 -63 1513 -63 
Q 872 -63 570 368 
Q 269 800 269 1675 
Q 269 3444 1513 3444 
Q 1897 3444 2153 3303 
Q 2409 3163 2566 2856 
L 2572 2856 
Q 2572 2888 2570 2955 
Q 2569 3022 2567 3095 
Q 2566 3169 2566 3234 
Q 2566 3300 2566 3328 
L 2566 4638 
L 3128 4638 
L 3128 697 
Q 3128 575 3129 462 
Q 3131 350 3134 256 
Q 3138 163 3141 95 
Q 3144 28 3147 0 
L 2609 0 
Q 2603 31 2598 89 
Q 2594 147 2589 222 
Q 2584 297 2581 380 
Q 2578 463 2578 544 
L 2566 544 
z
M 859 1694 
Q 859 1344 903 1094 
Q 947 844 1044 683 
Q 1141 522 1291 447 
Q 1441 372 1656 372 
Q 1878 372 2048 444 
Q 2219 516 2333 677 
Q 2447 838 2506 1097 
Q 2566 1356 2566 1731 
Q 2566 2091 2506 2339 
Q 2447 2588 2331 2741 
Q 2216 2894 2048 2961 
Q 1881 3028 1663 3028 
Q 1456 3028 1306 2956 
Q 1156 2884 1056 2725 
Q 956 2566 907 2311 
Q 859 2056 859 1694 
z
" transform="scale(0.015625)"/>
        <path id="LiberationSans-6b" d="M 2550 0 
L 1406 1544 
L 994 1203 
L 994 0 
L 431 0 
L 431 4638 
L 994 4638 
L 994 1741 
L 2478 3381 
L 3138 3381 
L 1766 1928 
L 3209 0 
L 2550 0 
z
" transform="scale(0.015625)"/>
        <path id="LiberationSans-4d" d="M 4269 0 
L 4269 2938 
Q 4269 3097 4272 3262 
Q 4275 3428 4281 3566 
Q 4288 3725 4297 3875 
Q 4253 3716 4206 3559 
Q 4166 3425 4117 3273 
Q 4069 3122 4022 3000 
L 2884 0 
L 2466 0 
L 1313 3000 
Q 1294 3047 1273 3109 
Q 1253 3172 1229 3242 
Q 1206 3313 1182 3386 
Q 1159 3459 1138 3531 
Q 1084 3697 1034 3875 
Q 1038 3700 1044 3528 
Q 1050 3381 1053 3220 
Q 1056 3059 1056 2938 
L 1056 0 
L 525 0 
L 525 4403 
L 1309 4403 
L 2481 1350 
Q 2503 1288 2534 1189 
Q 2566 1091 2594 987 
Q 2622 884 2645 792 
Q 2669 700 2678 650 
Q 2688 700 2713 794 
Q 2738 888 2770 991 
Q 2803 1094 2834 1191 
Q 2866 1288 2891 1350 
L 4041 4403 
L 4806 4403 
L 4806 0 
L 4269 0 
z
" transform="scale(0.015625)"/>
        <path id="LiberationSans-68" d="M 991 2803 
Q 1084 2975 1193 3095 
Q 1303 3216 1434 3294 
Q 1566 3372 1722 3408 
Q 1878 3444 2072 3444 
Q 2397 3444 2605 3356 
Q 2813 3269 2933 3111 
Q 3053 2953 3098 2734 
Q 3144 2516 3144 2253 
L 3144 0 
L 2578 0 
L 2578 2144 
Q 2578 2359 2551 2521 
Q 2525 2684 2450 2792 
Q 2375 2900 2237 2954 
Q 2100 3009 1881 3009 
Q 1681 3009 1520 2937 
Q 1359 2866 1245 2734 
Q 1131 2603 1068 2415 
Q 1006 2228 1006 1994 
L 1006 0 
L 444 0 
L 444 4638 
L 1006 4638 
L 1006 3431 
Q 1006 3328 1003 3225 
Q 1000 3122 995 3034 
Q 991 2947 987 2886 
Q 984 2825 981 2803 
L 991 2803 
z
" transform="scale(0.015625)"/>
       </defs>
       <use xlink:href="#LiberationSans-44"/>
       <use xlink:href="#LiberationSans-69" x="72.216797"/>
       <use xlink:href="#LiberationSans-64" x="94.433594"/>
       <use xlink:href="#LiberationSans-61" x="150.048828"/>
       <use xlink:href="#LiberationSans-6b" x="205.664062"/>
       <use xlink:href="#LiberationSans-74" x="255.664062"/>
       <use xlink:href="#LiberationSans-69" x="283.447266"/>
       <use xlink:href="#LiberationSans-6b" x="305.664062"/>
       <use xlink:href="#LiberationSans-20" x="355.664062"/>
       <use xlink:href="#LiberationSans-64" x="383.447266"/>
       <use xlink:href="#LiberationSans-65" x="439.0625"/>
       <use xlink:href="#LiberationSans-72" x="494.677734"/>
       <use xlink:href="#LiberationSans-20" x="527.978516"/>
       <use xlink:href="#LiberationSans-4d" x="555.761719"/>
       <use xlink:href="#LiberationSans-61" x="639.0625"/>
       <use xlink:href="#LiberationSans-74" x="694.677734"/>
       <use xlink:href="#LiberationSans-68" x="722.460938"/>
       <use xlink:href="#LiberationSans-65" x="778.076172"/>
       <use xlink:href="#LiberationSans-6d" x="833.691406"/>
       <use xlink:href="#LiberationSans-61" x="916.992188"/>
       <use xlink:href="#LiberationSans-74" x="972.607422"/>
       <use xlink:href="#LiberationSans-69" x="1000.390625"/>
       <use xlink:href="#LiberationSans-6b" x="1022.607422"/>
      </g>
     </g>
    </g>
    <g id="xtick_5">
     <g id="line2d_9">
      <path d="M 368.804343 211.048198 
L 368.804343 17.69649 
" clip-path="url(#p8ceeda8865)" style="fill: none; stroke: #ffffff; stroke-linecap: round"/>
     </g>
     <g id="line2d_10"/>
     <g id="text_5">
      <!-- Skalierbare Datenbanksysteme -->
      <g style="fill: #262626" transform="translate(371.390281 356.99976) rotate(-90) scale(0.1 -0.1)">
       <defs>
        <path id="LiberationSans-62" d="M 3291 1706 
Q 3291 -63 2047 -63 
Q 1663 -63 1408 76 
Q 1153 216 994 525 
L 988 525 
Q 988 444 983 356 
Q 978 269 973 194 
Q 969 119 964 66 
Q 959 13 956 0 
L 413 0 
Q 416 28 419 95 
Q 422 163 425 256 
Q 428 350 429 462 
Q 431 575 431 697 
L 431 4638 
L 994 4638 
L 994 3316 
Q 994 3222 992 3136 
Q 991 3050 988 2984 
Q 984 2906 981 2838 
L 994 2838 
Q 1150 3163 1408 3303 
Q 1666 3444 2047 3444 
Q 2688 3444 2989 3012 
Q 3291 2581 3291 1706 
z
M 2700 1688 
Q 2700 2038 2656 2288 
Q 2613 2538 2516 2698 
Q 2419 2859 2269 2934 
Q 2119 3009 1903 3009 
Q 1681 3009 1511 2937 
Q 1341 2866 1227 2706 
Q 1113 2547 1053 2287 
Q 994 2028 994 1653 
Q 994 1291 1053 1044 
Q 1113 797 1227 642 
Q 1341 488 1509 420 
Q 1678 353 1897 353 
Q 2103 353 2253 425 
Q 2403 497 2503 656 
Q 2603 816 2651 1070 
Q 2700 1325 2700 1688 
z
" transform="scale(0.015625)"/>
       </defs>
       <use xlink:href="#LiberationSans-53"/>
       <use xlink:href="#LiberationSans-6b" x="66.699219"/>
       <use xlink:href="#LiberationSans-61" x="116.699219"/>
       <use xlink:href="#LiberationSans-6c" x="172.314453"/>
       <use xlink:href="#LiberationSans-69" x="194.53125"/>
       <use xlink:href="#LiberationSans-65" x="216.748047"/>
       <use xlink:href="#LiberationSans-72" x="272.363281"/>
       <use xlink:href="#LiberationSans-62" x="305.664062"/>
       <use xlink:href="#LiberationSans-61" x="361.279297"/>
       <use xlink:href="#LiberationSans-72" x="416.894531"/>
       <use xlink:href="#LiberationSans-65" x="450.195312"/>
       <use xlink:href="#LiberationSans-20" x="505.810547"/>
       <use xlink:href="#LiberationSans-44" x="533.59375"/>
       <use xlink:href="#LiberationSans-61" x="605.810547"/>
       <use xlink:href="#LiberationSans-74" x="661.425781"/>
       <use xlink:href="#LiberationSans-65" x="689.208984"/>
       <use xlink:href="#LiberationSans-6e" x="744.824219"/>
       <use xlink:href="#LiberationSans-62" x="800.439453"/>
       <use xlink:href="#LiberationSans-61" x="856.054688"/>
       <use xlink:href="#LiberationSans-6e" x="911.669922"/>
       <use xlink:href="#LiberationSans-6b" x="967.285156"/>
       <use xlink:href="#LiberationSans-73" x="1017.285156"/>
       <use xlink:href="#LiberationSans-79" x="1067.285156"/>
       <use xlink:href="#LiberationSans-73" x="1117.285156"/>
       <use xlink:href="#LiberationSans-74" x="1167.285156"/>
       <use xlink:href="#LiberationSans-65" x="1195.068359"/>
       <use xlink:href="#LiberationSans-6d" x="1250.683594"/>
       <use xlink:href="#LiberationSans-65" x="1333.984375"/>
      </g>
     </g>
    </g>
    <g id="xtick_6">
     <g id="line2d_11">
      <path d="M 443.328218 211.048198 
L 443.328218 17.69649 
" clip-path="url(#p8ceeda8865)" style="fill: none; stroke: #ffffff; stroke-linecap: round"/>
     </g>
     <g id="line2d_12"/>
     <g id="text_6">
      <!-- Software Engineering II -->
      <g style="fill: #262626" transform="translate(445.914156 321.991948) rotate(-90) scale(0.1 -0.1)">
       <defs>
        <path id="LiberationSans-77" d="M 3669 0 
L 3016 0 
L 2475 2181 
Q 2450 2266 2423 2391 
Q 2397 2516 2372 2634 
Q 2341 2772 2313 2919 
Q 2284 2778 2253 2641 
Q 2228 2522 2198 2394 
Q 2169 2266 2144 2169 
L 1588 0 
L 938 0 
L -9 3381 
L 547 3381 
L 1119 1084 
Q 1141 1013 1162 908 
Q 1184 803 1206 703 
Q 1228 588 1253 466 
Q 1278 584 1306 697 
Q 1331 794 1356 894 
Q 1381 994 1400 1059 
L 2013 3381 
L 2616 3381 
L 3206 1059 
Q 3228 978 3253 875 
Q 3278 772 3300 681 
Q 3325 575 3350 466 
Q 3375 584 3400 697 
Q 3422 794 3445 898 
Q 3469 1003 3491 1084 
L 4088 3381 
L 4638 3381 
L 3669 0 
z
" transform="scale(0.015625)"/>
       </defs>
       <use xlink:href="#LiberationSans-53"/>
       <use xlink:href="#LiberationSans-6f" x="66.699219"/>
       <use xlink:href="#LiberationSans-66" x="122.314453"/>
       <use xlink:href="#LiberationSans-74" x="150.097656"/>
       <use xlink:href="#LiberationSans-77" x="177.880859"/>
       <use xlink:href="#LiberationSans-61" x="250.097656"/>
       <use xlink:href="#LiberationSans-72" x="305.712891"/>
       <use xlink:href="#LiberationSans-65" x="339.013672"/>
       <use xlink:href="#LiberationSans-20" x="394.628906"/>
       <use xlink:href="#LiberationSans-45" x="422.412109"/>
       <use xlink:href="#LiberationSans-6e" x="489.111328"/>
       <use xlink:href="#LiberationSans-67" x="544.726562"/>
       <use xlink:href="#LiberationSans-69" x="600.341797"/>
       <use xlink:href="#LiberationSans-6e" x="622.558594"/>
       <use xlink:href="#LiberationSans-65" x="678.173828"/>
       <use xlink:href="#LiberationSans-65" x="733.789062"/>
       <use xlink:href="#LiberationSans-72" x="789.404297"/>
       <use xlink:href="#LiberationSans-69" x="822.705078"/>
       <use xlink:href="#LiberationSans-6e" x="844.921875"/>
       <use xlink:href="#LiberationSans-67" x="900.537109"/>
       <use xlink:href="#LiberationSans-20" x="956.152344"/>
       <use xlink:href="#LiberationSans-49" x="983.935547"/>
       <use xlink:href="#LiberationSans-49" x="1011.71875"/>
      </g>
     </g>
    </g>
    <g id="xtick_7">
     <g id="line2d_13">
      <path d="M 517.852093 211.048198 
L 517.852093 17.69649 
" clip-path="url(#p8ceeda8865)" style="fill: none; stroke: #ffffff; stroke-linecap: round"/>
     </g>
     <g id="line2d_14"/>
     <g id="text_7">
      <!-- Technische Informatik -->
      <g style="fill: #262626" transform="translate(520.43803 314.746635) rotate(-90) scale(0.1 -0.1)">
       <defs>
        <path id="LiberationSans-54" d="M 2250 3916 
L 2250 0 
L 1656 0 
L 1656 3916 
L 144 3916 
L 144 4403 
L 3763 4403 
L 3763 3916 
L 2250 3916 
z
" transform="scale(0.015625)"/>
       </defs>
       <use xlink:href="#LiberationSans-54"/>
       <use xlink:href="#LiberationSans-65" x="49.958984"/>
       <use xlink:href="#LiberationSans-63" x="105.574219"/>
       <use xlink:href="#LiberationSans-68" x="155.574219"/>
       <use xlink:href="#LiberationSans-6e" x="211.189453"/>
       <use xlink:href="#LiberationSans-69" x="266.804688"/>
       <use xlink:href="#LiberationSans-73" x="289.021484"/>
       <use xlink:href="#LiberationSans-63" x="339.021484"/>
       <use xlink:href="#LiberationSans-68" x="389.021484"/>
       <use xlink:href="#LiberationSans-65" x="444.636719"/>
       <use xlink:href="#LiberationSans-20" x="500.251953"/>
       <use xlink:href="#LiberationSans-49" x="528.035156"/>
       <use xlink:href="#LiberationSans-6e" x="555.818359"/>
       <use xlink:href="#LiberationSans-66" x="611.433594"/>
       <use xlink:href="#LiberationSans-6f" x="639.216797"/>
       <use xlink:href="#LiberationSans-72" x="694.832031"/>
       <use xlink:href="#LiberationSans-6d" x="728.132812"/>
       <use xlink:href="#LiberationSans-61" x="811.433594"/>
       <use xlink:href="#LiberationSans-74" x="867.048828"/>
       <use xlink:href="#LiberationSans-69" x="894.832031"/>
       <use xlink:href="#LiberationSans-6b" x="917.048828"/>
      </g>
     </g>
    </g>
   </g>
   <g id="matplotlib.axis_2">
    <g id="ytick_1">
     <g id="line2d_15">
      <path d="M 15.561177 211.048198 
L 572.99976 211.048198 
" clip-path="url(#p8ceeda8865)" style="fill: none; stroke: #ffffff; stroke-linecap: round"/>
     </g>
     <g id="line2d_16"/>
     <g id="text_8">
      <!-- 0 -->
      <g style="fill: #262626" transform="translate(3.00024 214.671635) scale(0.1 -0.1)">
       <defs>
        <path id="LiberationSans-30" d="M 3309 2203 
Q 3309 1569 3189 1136 
Q 3069 703 2861 436 
Q 2653 169 2372 53 
Q 2091 -63 1772 -63 
Q 1450 -63 1172 53 
Q 894 169 689 434 
Q 484 700 367 1133 
Q 250 1566 250 2203 
Q 250 2869 367 3305 
Q 484 3741 690 4000 
Q 897 4259 1178 4364 
Q 1459 4469 1791 4469 
Q 2106 4469 2382 4364 
Q 2659 4259 2865 4000 
Q 3072 3741 3190 3305 
Q 3309 2869 3309 2203 
z
M 2738 2203 
Q 2738 2728 2675 3076 
Q 2613 3425 2491 3633 
Q 2369 3841 2192 3927 
Q 2016 4013 1791 4013 
Q 1553 4013 1372 3925 
Q 1191 3838 1067 3630 
Q 944 3422 881 3073 
Q 819 2725 819 2203 
Q 819 1697 883 1350 
Q 947 1003 1070 792 
Q 1194 581 1372 489 
Q 1550 397 1778 397 
Q 2000 397 2178 489 
Q 2356 581 2479 792 
Q 2603 1003 2670 1350 
Q 2738 1697 2738 2203 
z
" transform="scale(0.015625)"/>
       </defs>
       <use xlink:href="#LiberationSans-30"/>
      </g>
     </g>
    </g>
    <g id="ytick_2">
     <g id="line2d_17">
      <path d="M 15.561177 118.975956 
L 572.99976 118.975956 
" clip-path="url(#p8ceeda8865)" style="fill: none; stroke: #ffffff; stroke-linecap: round"/>
     </g>
     <g id="line2d_18"/>
     <g id="text_9">
      <!-- 1 -->
      <g style="fill: #262626" transform="translate(3.00024 122.599393) scale(0.1 -0.1)">
       <defs>
        <path id="LiberationSans-31" d="M 488 0 
L 488 478 
L 1609 478 
L 1609 3866 
L 616 3156 
L 616 3688 
L 1656 4403 
L 2175 4403 
L 2175 478 
L 3247 478 
L 3247 0 
L 488 0 
z
" transform="scale(0.015625)"/>
       </defs>
       <use xlink:href="#LiberationSans-31"/>
      </g>
     </g>
    </g>
    <g id="ytick_3">
     <g id="line2d_19">
      <path d="M 15.561177 26.903714 
L 572.99976 26.903714 
" clip-path="url(#p8ceeda8865)" style="fill: none; stroke: #ffffff; stroke-linecap: round"/>
     </g>
     <g id="line2d_20"/>
     <g id="text_10">
      <!-- 2 -->
      <g style="fill: #262626" transform="translate(3.00024 30.527152) scale(0.1 -0.1)">
       <defs>
        <path id="LiberationSans-32" d="M 322 0 
L 322 397 
Q 481 763 711 1042 
Q 941 1322 1194 1548 
Q 1447 1775 1695 1969 
Q 1944 2163 2144 2356 
Q 2344 2550 2467 2762 
Q 2591 2975 2591 3244 
Q 2591 3431 2534 3573 
Q 2478 3716 2372 3812 
Q 2266 3909 2117 3957 
Q 1969 4006 1788 4006 
Q 1619 4006 1470 3959 
Q 1322 3913 1206 3819 
Q 1091 3725 1017 3586 
Q 944 3447 922 3263 
L 347 3316 
Q 375 3553 478 3762 
Q 581 3972 762 4130 
Q 944 4288 1198 4378 
Q 1453 4469 1788 4469 
Q 2116 4469 2372 4391 
Q 2628 4313 2804 4159 
Q 2981 4006 3075 3781 
Q 3169 3556 3169 3263 
Q 3169 3041 3089 2841 
Q 3009 2641 2876 2459 
Q 2744 2278 2569 2109 
Q 2394 1941 2203 1780 
Q 2013 1619 1819 1461 
Q 1625 1303 1454 1143 
Q 1284 984 1150 820 
Q 1016 656 941 478 
L 3238 478 
L 3238 0 
L 322 0 
z
" transform="scale(0.015625)"/>
       </defs>
       <use xlink:href="#LiberationSans-32"/>
      </g>
     </g>
    </g>
   </g>
   <g id="patch_3">
    <path d="M 40.899295 211.048198 
L 100.518395 211.048198 
L 100.518395 118.975956 
L 40.899295 118.975956 
z
" clip-path="url(#p8ceeda8865)" style="fill: #4c72b0"/>
   </g>
   <g id="patch_4">
    <path d="M 115.42317 211.048198 
L 175.042269 211.048198 
L 175.042269 118.975956 
L 115.42317 118.975956 
z
" clip-path="url(#p8ceeda8865)" style="fill: #4c72b0"/>
   </g>
   <g id="patch_5">
    <path d="M 189.947044 211.048198 
L 249.566144 211.048198 
L 249.566144 118.975956 
L 189.947044 118.975956 
z
" clip-path="url(#p8ceeda8865)" style="fill: #4c72b0"/>
   </g>
   <g id="patch_6">
    <path d="M 264.470919 211.048198 
L 324.090019 211.048198 
L 324.090019 26.903714 
L 264.470919 26.903714 
z
" clip-path="url(#p8ceeda8865)" style="fill: #4c72b0"/>
   </g>
   <g id="patch_7">
    <path d="M 338.994794 211.048198 
L 398.613893 211.048198 
L 398.613893 26.903714 
L 338.994794 26.903714 
z
" clip-path="url(#p8ceeda8865)" style="fill: #4c72b0"/>
   </g>
   <g id="patch_8">
    <path d="M 413.518668 211.048198 
L 473.137768 211.048198 
L 473.137768 26.903714 
L 413.518668 26.903714 
z
" clip-path="url(#p8ceeda8865)" style="fill: #4c72b0"/>
   </g>
   <g id="patch_9">
    <path d="M 488.042543 211.048198 
L 547.661643 211.048198 
L 547.661643 26.903714 
L 488.042543 26.903714 
z
" clip-path="url(#p8ceeda8865)" style="fill: #4c72b0"/>
   </g>
   <g id="patch_10">
    <path d="M 15.561177 211.048198 
L 15.561177 17.69649 
" style="fill: none"/>
   </g>
   <g id="patch_11">
    <path d="M 572.99976 211.048198 
L 572.99976 17.69649 
" style="fill: none"/>
   </g>
   <g id="patch_12">
    <path d="M 15.561177 211.048198 
L 572.99976 211.048198 
" style="fill: none"/>
   </g>
   <g id="patch_13">
    <path d="M 15.561177 17.69649 
L 572.99976 17.69649 
" style="fill: none"/>
   </g>
   <g id="text_11">
    <!-- 1 -->
    <g style="fill: #262626" transform="translate(67.928376 148.900956) scale(0.1 -0.1)">
     <defs>
      <path id="LiberationSans-Bold-31" d="M 403 0 
L 403 653 
L 1494 653 
L 1494 3656 
L 438 2997 
L 438 3688 
L 1541 4403 
L 2372 4403 
L 2372 653 
L 3381 653 
L 3381 0 
L 403 0 
z
" transform="scale(0.015625)"/>
     </defs>
     <use xlink:href="#LiberationSans-Bold-31"/>
    </g>
   </g>
   <g id="text_12">
    <!-- 1 -->
    <g style="fill: #262626" transform="translate(142.452251 148.900956) scale(0.1 -0.1)">
     <use xlink:href="#LiberationSans-Bold-31"/>
    </g>
   </g>
   <g id="text_13">
    <!-- 1 -->
    <g style="fill: #262626" transform="translate(216.976125 148.900956) scale(0.1 -0.1)">
     <use xlink:href="#LiberationSans-Bold-31"/>
    </g>
   </g>
   <g id="text_14">
    <!-- 2 -->
    <g style="fill: #262626" transform="translate(291.5 56.828714) scale(0.1 -0.1)">
     <defs>
      <path id="LiberationSans-Bold-32" d="M 222 0 
L 222 609 
Q 372 938 587 1202 
Q 803 1466 1039 1686 
Q 1275 1906 1508 2095 
Q 1741 2284 1927 2461 
Q 2113 2638 2228 2816 
Q 2344 2994 2344 3194 
Q 2344 3488 2197 3628 
Q 2050 3769 1766 3769 
Q 1484 3769 1336 3617 
Q 1188 3466 1144 3163 
L 259 3213 
Q 291 3472 387 3700 
Q 484 3928 664 4100 
Q 844 4272 1114 4370 
Q 1384 4469 1759 4469 
Q 2116 4469 2391 4386 
Q 2666 4303 2853 4143 
Q 3041 3984 3137 3754 
Q 3234 3525 3234 3231 
Q 3234 2922 3112 2672 
Q 2991 2422 2800 2211 
Q 2609 2000 2376 1815 
Q 2144 1631 1925 1456 
Q 1706 1281 1526 1103 
Q 1347 925 1259 722 
L 3303 722 
L 3303 0 
L 222 0 
z
" transform="scale(0.015625)"/>
     </defs>
     <use xlink:href="#LiberationSans-Bold-32"/>
    </g>
   </g>
   <g id="text_15">
    <!-- 2 -->
    <g style="fill: #262626" transform="translate(366.023875 56.828714) scale(0.1 -0.1)">
     <use xlink:href="#LiberationSans-Bold-32"/>
    </g>
   </g>
   <g id="text_16">
    <!-- 2 -->
    <g style="fill: #262626" transform="translate(440.547749 56.828714) scale(0.1 -0.1)">
     <use xlink:href="#LiberationSans-Bold-32"/>
    </g>
   </g>
   <g id="text_17">
    <!-- 2 -->
    <g style="fill: #262626" transform="translate(515.071624 56.828714) scale(0.1 -0.1)">
     <use xlink:href="#LiberationSans-Bold-32"/>
    </g>
   </g>
   <g id="text_18">
    <!-- Stef by Chair -->
    <g style="fill: #262626" transform="translate(259.600469 11.69649) scale(0.12 -0.12)">
     <defs>
      <path id="LiberationSans-43" d="M 2475 3981 
Q 2100 3981 1811 3856 
Q 1522 3731 1326 3500 
Q 1131 3269 1031 2944 
Q 931 2619 931 2222 
Q 931 1825 1039 1495 
Q 1147 1166 1348 928 
Q 1550 691 1842 559 
Q 2134 428 2500 428 
Q 2756 428 2967 495 
Q 3178 563 3348 684 
Q 3519 806 3653 973 
Q 3788 1141 3891 1344 
L 4378 1100 
Q 4259 853 4084 640 
Q 3909 428 3673 272 
Q 3438 116 3139 26 
Q 2841 -63 2472 -63 
Q 1938 -63 1536 107 
Q 1134 278 864 583 
Q 594 888 459 1306 
Q 325 1725 325 2222 
Q 325 2738 467 3153 
Q 609 3569 882 3861 
Q 1156 4153 1556 4311 
Q 1956 4469 2469 4469 
Q 3172 4469 3644 4194 
Q 4116 3919 4338 3378 
L 3772 3191 
Q 3709 3347 3603 3489 
Q 3497 3631 3337 3740 
Q 3178 3850 2964 3915 
Q 2750 3981 2475 3981 
z
" transform="scale(0.015625)"/>
     </defs>
     <use xlink:href="#LiberationSans-53"/>
     <use xlink:href="#LiberationSans-74" x="66.699219"/>
     <use xlink:href="#LiberationSans-65" x="94.482422"/>
     <use xlink:href="#LiberationSans-66" x="150.097656"/>
     <use xlink:href="#LiberationSans-20" x="177.880859"/>
     <use xlink:href="#LiberationSans-62" x="205.664062"/>
     <use xlink:href="#LiberationSans-79" x="261.279297"/>
     <use xlink:href="#LiberationSans-20" x="311.279297"/>
     <use xlink:href="#LiberationSans-43" x="339.0625"/>
     <use xlink:href="#LiberationSans-68" x="411.279297"/>
     <use xlink:href="#LiberationSans-61" x="466.894531"/>
     <use xlink:href="#LiberationSans-69" x="522.509766"/>
     <use xlink:href="#LiberationSans-72" x="544.726562"/>
    </g>
   </g>
  </g>
 </g>
 <defs>
  <clipPath id="p8ceeda8865">
   <rect x="15.561177" y="17.69649" width="557.438583" height="193.351708"/>
  </clipPath>
 </defs>
</svg>
