<?xml version="1.0" encoding="utf-8" standalone="no"?>
<!DOCTYPE svg PUBLIC "-//W3C//DTD SVG 1.1//EN"
  "http://www.w3.org/Graphics/SVG/1.1/DTD/svg11.dtd">
<svg xmlns:xlink="http://www.w3.org/1999/xlink" width="576pt" height="360pt" viewBox="0 0 576 360" xmlns="http://www.w3.org/2000/svg" version="1.1">
 <metadata>
  <rdf:RDF xmlns:dc="http://purl.org/dc/elements/1.1/" xmlns:cc="http://creativecommons.org/ns#" xmlns:rdf="http://www.w3.org/1999/02/22-rdf-syntax-ns#">
   <cc:Work>
    <dc:type rdf:resource="http://purl.org/dc/dcmitype/StillImage"/>
    <dc:date>2024-09-09T21:31:19.573250</dc:date>
    <dc:format>image/svg+xml</dc:format>
    <dc:creator>
     <cc:Agent>
      <dc:title>Matplotlib v3.8.2, https://matplotlib.org/</dc:title>
     </cc:Agent>
    </dc:creator>
   </cc:Work>
  </rdf:RDF>
 </metadata>
 <defs>
  <style type="text/css">*{stroke-linejoin: round; stroke-linecap: butt}</style>
 </defs>
 <g id="figure_1">
  <g id="patch_1">
   <path d="M 0 360 
L 576 360 
L 576 0 
L 0 0 
z
" style="fill: #ffffff"/>
  </g>
  <g id="axes_1">
   <g id="patch_2">
    <path d="M 17.622115 302.352885 
L 572.99976 302.352885 
L 572.99976 17.69649 
L 17.622115 17.69649 
z
" style="fill: #eaeaf2"/>
   </g>
   <g id="matplotlib.axis_1">
    <g id="xtick_1">
     <g id="line2d_1">
      <path d="M 42.866553 302.352885 
L 42.866553 17.69649 
" clip-path="url(#p0bafeafc14)" style="fill: none; stroke: #ffffff; stroke-width: 0.8; stroke-linecap: round"/>
     </g>
     <g id="line2d_2"/>
     <g id="text_1">
      <!-- 2023-03-01 -->
      <g style="fill: #262626" transform="translate(45.452491 356.99976) rotate(-90) scale(0.1 -0.1)">
       <defs>
        <path id="LiberationSans-32" d="M 322 0 
L 322 397 
Q 481 763 711 1042 
Q 941 1322 1194 1548 
Q 1447 1775 1695 1969 
Q 1944 2163 2144 2356 
Q 2344 2550 2467 2762 
Q 2591 2975 2591 3244 
Q 2591 3431 2534 3573 
Q 2478 3716 2372 3812 
Q 2266 3909 2117 3957 
Q 1969 4006 1788 4006 
Q 1619 4006 1470 3959 
Q 1322 3913 1206 3819 
Q 1091 3725 1017 3586 
Q 944 3447 922 3263 
L 347 3316 
Q 375 3553 478 3762 
Q 581 3972 762 4130 
Q 944 4288 1198 4378 
Q 1453 4469 1788 4469 
Q 2116 4469 2372 4391 
Q 2628 4313 2804 4159 
Q 2981 4006 3075 3781 
Q 3169 3556 3169 3263 
Q 3169 3041 3089 2841 
Q 3009 2641 2876 2459 
Q 2744 2278 2569 2109 
Q 2394 1941 2203 1780 
Q 2013 1619 1819 1461 
Q 1625 1303 1454 1143 
Q 1284 984 1150 820 
Q 1016 656 941 478 
L 3238 478 
L 3238 0 
L 322 0 
z
" transform="scale(0.015625)"/>
        <path id="LiberationSans-30" d="M 3309 2203 
Q 3309 1569 3189 1136 
Q 3069 703 2861 436 
Q 2653 169 2372 53 
Q 2091 -63 1772 -63 
Q 1450 -63 1172 53 
Q 894 169 689 434 
Q 484 700 367 1133 
Q 250 1566 250 2203 
Q 250 2869 367 3305 
Q 484 3741 690 4000 
Q 897 4259 1178 4364 
Q 1459 4469 1791 4469 
Q 2106 4469 2382 4364 
Q 2659 4259 2865 4000 
Q 3072 3741 3190 3305 
Q 3309 2869 3309 2203 
z
M 2738 2203 
Q 2738 2728 2675 3076 
Q 2613 3425 2491 3633 
Q 2369 3841 2192 3927 
Q 2016 4013 1791 4013 
Q 1553 4013 1372 3925 
Q 1191 3838 1067 3630 
Q 944 3422 881 3073 
Q 819 2725 819 2203 
Q 819 1697 883 1350 
Q 947 1003 1070 792 
Q 1194 581 1372 489 
Q 1550 397 1778 397 
Q 2000 397 2178 489 
Q 2356 581 2479 792 
Q 2603 1003 2670 1350 
Q 2738 1697 2738 2203 
z
" transform="scale(0.015625)"/>
        <path id="LiberationSans-33" d="M 3278 1216 
Q 3278 913 3179 675 
Q 3081 438 2892 273 
Q 2703 109 2423 23 
Q 2144 -63 1784 -63 
Q 1375 -63 1095 39 
Q 816 141 634 308 
Q 453 475 362 689 
Q 272 903 244 1131 
L 825 1184 
Q 850 1009 917 865 
Q 984 722 1100 619 
Q 1216 516 1384 459 
Q 1553 403 1784 403 
Q 2209 403 2451 612 
Q 2694 822 2694 1234 
Q 2694 1478 2586 1626 
Q 2478 1775 2317 1858 
Q 2156 1941 1967 1969 
Q 1778 1997 1619 1997 
L 1300 1997 
L 1300 2484 
L 1606 2484 
Q 1766 2484 1937 2517 
Q 2109 2550 2251 2636 
Q 2394 2722 2486 2869 
Q 2578 3016 2578 3244 
Q 2578 3597 2370 3801 
Q 2163 4006 1753 4006 
Q 1381 4006 1151 3815 
Q 922 3625 884 3278 
L 319 3322 
Q 353 3613 478 3828 
Q 603 4044 795 4186 
Q 988 4328 1234 4398 
Q 1481 4469 1759 4469 
Q 2128 4469 2393 4376 
Q 2659 4284 2828 4126 
Q 2997 3969 3076 3756 
Q 3156 3544 3156 3303 
Q 3156 3109 3103 2940 
Q 3050 2772 2937 2637 
Q 2825 2503 2651 2406 
Q 2478 2309 2234 2259 
L 2234 2247 
Q 2500 2219 2697 2126 
Q 2894 2034 3022 1896 
Q 3150 1759 3214 1584 
Q 3278 1409 3278 1216 
z
" transform="scale(0.015625)"/>
        <path id="LiberationSans-2d" d="M 284 1450 
L 284 1950 
L 1847 1950 
L 1847 1450 
L 284 1450 
z
" transform="scale(0.015625)"/>
        <path id="LiberationSans-31" d="M 488 0 
L 488 478 
L 1609 478 
L 1609 3866 
L 616 3156 
L 616 3688 
L 1656 4403 
L 2175 4403 
L 2175 478 
L 3247 478 
L 3247 0 
L 488 0 
z
" transform="scale(0.015625)"/>
       </defs>
       <use xlink:href="#LiberationSans-32"/>
       <use xlink:href="#LiberationSans-30" x="55.615234"/>
       <use xlink:href="#LiberationSans-32" x="111.230469"/>
       <use xlink:href="#LiberationSans-33" x="166.845703"/>
       <use xlink:href="#LiberationSans-2d" x="222.460938"/>
       <use xlink:href="#LiberationSans-30" x="255.761719"/>
       <use xlink:href="#LiberationSans-33" x="311.376953"/>
       <use xlink:href="#LiberationSans-2d" x="366.992188"/>
       <use xlink:href="#LiberationSans-30" x="400.292969"/>
       <use xlink:href="#LiberationSans-31" x="455.908203"/>
      </g>
     </g>
    </g>
    <g id="xtick_2">
     <g id="line2d_3">
      <path d="M 70.915929 302.352885 
L 70.915929 17.69649 
" clip-path="url(#p0bafeafc14)" style="fill: none; stroke: #ffffff; stroke-width: 0.8; stroke-linecap: round"/>
     </g>
     <g id="line2d_4"/>
     <g id="text_2">
      <!-- 2023-04-01 -->
      <g style="fill: #262626" transform="translate(73.501867 356.99976) rotate(-90) scale(0.1 -0.1)">
       <defs>
        <path id="LiberationSans-34" d="M 2753 997 
L 2753 0 
L 2222 0 
L 2222 997 
L 147 997 
L 147 1434 
L 2163 4403 
L 2753 4403 
L 2753 1441 
L 3372 1441 
L 3372 997 
L 2753 997 
z
M 2222 3769 
Q 2216 3753 2191 3708 
Q 2166 3663 2134 3606 
Q 2103 3550 2070 3492 
Q 2038 3434 2013 3397 
L 884 1734 
Q 869 1709 839 1668 
Q 809 1628 778 1586 
Q 747 1544 715 1503 
Q 684 1463 666 1441 
L 2222 1441 
L 2222 3769 
z
" transform="scale(0.015625)"/>
       </defs>
       <use xlink:href="#LiberationSans-32"/>
       <use xlink:href="#LiberationSans-30" x="55.615234"/>
       <use xlink:href="#LiberationSans-32" x="111.230469"/>
       <use xlink:href="#LiberationSans-33" x="166.845703"/>
       <use xlink:href="#LiberationSans-2d" x="222.460938"/>
       <use xlink:href="#LiberationSans-30" x="255.761719"/>
       <use xlink:href="#LiberationSans-34" x="311.376953"/>
       <use xlink:href="#LiberationSans-2d" x="366.992188"/>
       <use xlink:href="#LiberationSans-30" x="400.292969"/>
       <use xlink:href="#LiberationSans-31" x="455.908203"/>
      </g>
     </g>
    </g>
    <g id="xtick_3">
     <g id="line2d_5">
      <path d="M 98.965305 302.352885 
L 98.965305 17.69649 
" clip-path="url(#p0bafeafc14)" style="fill: none; stroke: #ffffff; stroke-width: 0.8; stroke-linecap: round"/>
     </g>
     <g id="line2d_6"/>
     <g id="text_3">
      <!-- 2023-05-01 -->
      <g style="fill: #262626" transform="translate(101.551243 356.99976) rotate(-90) scale(0.1 -0.1)">
       <defs>
        <path id="LiberationSans-35" d="M 3291 1434 
Q 3291 1103 3191 828 
Q 3091 553 2894 354 
Q 2697 156 2405 46 
Q 2113 -63 1728 -63 
Q 1381 -63 1123 18 
Q 866 100 687 242 
Q 509 384 404 575 
Q 300 766 256 984 
L 825 1050 
Q 859 925 921 808 
Q 984 691 1092 598 
Q 1200 506 1358 451 
Q 1516 397 1741 397 
Q 1959 397 2137 464 
Q 2316 531 2442 662 
Q 2569 794 2637 984 
Q 2706 1175 2706 1422 
Q 2706 1625 2640 1795 
Q 2575 1966 2453 2089 
Q 2331 2213 2154 2281 
Q 1978 2350 1753 2350 
Q 1613 2350 1494 2325 
Q 1375 2300 1273 2256 
Q 1172 2213 1089 2155 
Q 1006 2097 934 2034 
L 384 2034 
L 531 4403 
L 3034 4403 
L 3034 3925 
L 1044 3925 
L 959 2528 
Q 1109 2644 1334 2726 
Q 1559 2809 1869 2809 
Q 2197 2809 2459 2709 
Q 2722 2609 2906 2426 
Q 3091 2244 3191 1991 
Q 3291 1738 3291 1434 
z
" transform="scale(0.015625)"/>
       </defs>
       <use xlink:href="#LiberationSans-32"/>
       <use xlink:href="#LiberationSans-30" x="55.615234"/>
       <use xlink:href="#LiberationSans-32" x="111.230469"/>
       <use xlink:href="#LiberationSans-33" x="166.845703"/>
       <use xlink:href="#LiberationSans-2d" x="222.460938"/>
       <use xlink:href="#LiberationSans-30" x="255.761719"/>
       <use xlink:href="#LiberationSans-35" x="311.376953"/>
       <use xlink:href="#LiberationSans-2d" x="366.992188"/>
       <use xlink:href="#LiberationSans-30" x="400.292969"/>
       <use xlink:href="#LiberationSans-31" x="455.908203"/>
      </g>
     </g>
    </g>
    <g id="xtick_4">
     <g id="line2d_7">
      <path d="M 127.014681 302.352885 
L 127.014681 17.69649 
" clip-path="url(#p0bafeafc14)" style="fill: none; stroke: #ffffff; stroke-width: 0.8; stroke-linecap: round"/>
     </g>
     <g id="line2d_8"/>
     <g id="text_4">
      <!-- 2023-06-01 -->
      <g style="fill: #262626" transform="translate(129.600619 356.99976) rotate(-90) scale(0.1 -0.1)">
       <defs>
        <path id="LiberationSans-36" d="M 3278 1441 
Q 3278 1109 3186 832 
Q 3094 556 2914 357 
Q 2734 159 2468 48 
Q 2203 -63 1856 -63 
Q 1472 -63 1184 84 
Q 897 231 706 507 
Q 516 784 420 1186 
Q 325 1588 325 2100 
Q 325 2688 433 3131 
Q 541 3575 744 3872 
Q 947 4169 1239 4319 
Q 1531 4469 1900 4469 
Q 2125 4469 2322 4422 
Q 2519 4375 2680 4270 
Q 2841 4166 2962 3994 
Q 3084 3822 3156 3572 
L 2619 3475 
Q 2531 3759 2339 3886 
Q 2147 4013 1894 4013 
Q 1663 4013 1475 3903 
Q 1288 3794 1156 3576 
Q 1025 3359 954 3031 
Q 884 2703 884 2266 
Q 1038 2550 1316 2698 
Q 1594 2847 1953 2847 
Q 2253 2847 2497 2750 
Q 2741 2653 2914 2470 
Q 3088 2288 3183 2027 
Q 3278 1766 3278 1441 
z
M 2706 1416 
Q 2706 1644 2650 1828 
Q 2594 2013 2481 2142 
Q 2369 2272 2203 2342 
Q 2038 2413 1819 2413 
Q 1666 2413 1509 2367 
Q 1353 2322 1226 2220 
Q 1100 2119 1020 1953 
Q 941 1788 941 1550 
Q 941 1306 1003 1095 
Q 1066 884 1183 728 
Q 1300 572 1465 481 
Q 1631 391 1838 391 
Q 2041 391 2202 461 
Q 2363 531 2475 664 
Q 2588 797 2647 987 
Q 2706 1178 2706 1416 
z
" transform="scale(0.015625)"/>
       </defs>
       <use xlink:href="#LiberationSans-32"/>
       <use xlink:href="#LiberationSans-30" x="55.615234"/>
       <use xlink:href="#LiberationSans-32" x="111.230469"/>
       <use xlink:href="#LiberationSans-33" x="166.845703"/>
       <use xlink:href="#LiberationSans-2d" x="222.460938"/>
       <use xlink:href="#LiberationSans-30" x="255.761719"/>
       <use xlink:href="#LiberationSans-36" x="311.376953"/>
       <use xlink:href="#LiberationSans-2d" x="366.992188"/>
       <use xlink:href="#LiberationSans-30" x="400.292969"/>
       <use xlink:href="#LiberationSans-31" x="455.908203"/>
      </g>
     </g>
    </g>
    <g id="xtick_5">
     <g id="line2d_9">
      <path d="M 155.064057 302.352885 
L 155.064057 17.69649 
" clip-path="url(#p0bafeafc14)" style="fill: none; stroke: #ffffff; stroke-width: 0.8; stroke-linecap: round"/>
     </g>
     <g id="line2d_10"/>
     <g id="text_5">
      <!-- 2023-07-01 -->
      <g style="fill: #262626" transform="translate(157.649995 356.99976) rotate(-90) scale(0.1 -0.1)">
       <defs>
        <path id="LiberationSans-37" d="M 3238 3947 
Q 2906 3441 2628 2973 
Q 2350 2506 2150 2032 
Q 1950 1559 1839 1061 
Q 1728 563 1728 0 
L 1141 0 
Q 1141 528 1266 1036 
Q 1391 1544 1603 2033 
Q 1816 2522 2097 2994 
Q 2378 3466 2694 3925 
L 328 3925 
L 328 4403 
L 3238 4403 
L 3238 3947 
z
" transform="scale(0.015625)"/>
       </defs>
       <use xlink:href="#LiberationSans-32"/>
       <use xlink:href="#LiberationSans-30" x="55.615234"/>
       <use xlink:href="#LiberationSans-32" x="111.230469"/>
       <use xlink:href="#LiberationSans-33" x="166.845703"/>
       <use xlink:href="#LiberationSans-2d" x="222.460938"/>
       <use xlink:href="#LiberationSans-30" x="255.761719"/>
       <use xlink:href="#LiberationSans-37" x="311.376953"/>
       <use xlink:href="#LiberationSans-2d" x="366.992188"/>
       <use xlink:href="#LiberationSans-30" x="400.292969"/>
       <use xlink:href="#LiberationSans-31" x="455.908203"/>
      </g>
     </g>
    </g>
    <g id="xtick_6">
     <g id="line2d_11">
      <path d="M 183.113433 302.352885 
L 183.113433 17.69649 
" clip-path="url(#p0bafeafc14)" style="fill: none; stroke: #ffffff; stroke-width: 0.8; stroke-linecap: round"/>
     </g>
     <g id="line2d_12"/>
     <g id="text_6">
      <!-- 2023-08-01 -->
      <g style="fill: #262626" transform="translate(185.699371 356.99976) rotate(-90) scale(0.1 -0.1)">
       <defs>
        <path id="LiberationSans-38" d="M 3281 1228 
Q 3281 947 3192 711 
Q 3103 475 2920 303 
Q 2738 131 2453 34 
Q 2169 -63 1781 -63 
Q 1394 -63 1111 34 
Q 828 131 642 301 
Q 456 472 367 708 
Q 278 944 278 1222 
Q 278 1463 351 1650 
Q 425 1838 548 1973 
Q 672 2109 830 2192 
Q 988 2275 1156 2303 
L 1156 2316 
Q 972 2359 826 2456 
Q 681 2553 582 2689 
Q 484 2825 432 2990 
Q 381 3156 381 3341 
Q 381 3572 470 3776 
Q 559 3981 734 4136 
Q 909 4291 1168 4380 
Q 1428 4469 1769 4469 
Q 2128 4469 2392 4378 
Q 2656 4288 2829 4133 
Q 3003 3978 3087 3772 
Q 3172 3566 3172 3334 
Q 3172 3153 3120 2987 
Q 3069 2822 2970 2686 
Q 2872 2550 2726 2454 
Q 2581 2359 2391 2322 
L 2391 2309 
Q 2581 2278 2743 2195 
Q 2906 2113 3025 1977 
Q 3144 1841 3212 1653 
Q 3281 1466 3281 1228 
z
M 2588 3303 
Q 2588 3469 2545 3606 
Q 2503 3744 2406 3842 
Q 2309 3941 2153 3995 
Q 1997 4050 1769 4050 
Q 1547 4050 1394 3995 
Q 1241 3941 1142 3842 
Q 1044 3744 1000 3606 
Q 956 3469 956 3303 
Q 956 3172 990 3034 
Q 1025 2897 1115 2784 
Q 1206 2672 1365 2600 
Q 1525 2528 1775 2528 
Q 2041 2528 2202 2600 
Q 2363 2672 2448 2784 
Q 2534 2897 2561 3034 
Q 2588 3172 2588 3303 
z
M 2697 1281 
Q 2697 1441 2653 1589 
Q 2609 1738 2503 1852 
Q 2397 1966 2217 2036 
Q 2038 2106 1769 2106 
Q 1522 2106 1348 2036 
Q 1175 1966 1067 1850 
Q 959 1734 909 1582 
Q 859 1431 859 1269 
Q 859 1066 909 898 
Q 959 731 1068 611 
Q 1178 491 1356 425 
Q 1534 359 1788 359 
Q 2044 359 2219 425 
Q 2394 491 2500 611 
Q 2606 731 2651 901 
Q 2697 1072 2697 1281 
z
" transform="scale(0.015625)"/>
       </defs>
       <use xlink:href="#LiberationSans-32"/>
       <use xlink:href="#LiberationSans-30" x="55.615234"/>
       <use xlink:href="#LiberationSans-32" x="111.230469"/>
       <use xlink:href="#LiberationSans-33" x="166.845703"/>
       <use xlink:href="#LiberationSans-2d" x="222.460938"/>
       <use xlink:href="#LiberationSans-30" x="255.761719"/>
       <use xlink:href="#LiberationSans-38" x="311.376953"/>
       <use xlink:href="#LiberationSans-2d" x="366.992188"/>
       <use xlink:href="#LiberationSans-30" x="400.292969"/>
       <use xlink:href="#LiberationSans-31" x="455.908203"/>
      </g>
     </g>
    </g>
    <g id="xtick_7">
     <g id="line2d_13">
      <path d="M 211.162809 302.352885 
L 211.162809 17.69649 
" clip-path="url(#p0bafeafc14)" style="fill: none; stroke: #ffffff; stroke-width: 0.8; stroke-linecap: round"/>
     </g>
     <g id="line2d_14"/>
     <g id="text_7">
      <!-- 2023-09-01 -->
      <g style="fill: #262626" transform="translate(213.748747 356.99976) rotate(-90) scale(0.1 -0.1)">
       <defs>
        <path id="LiberationSans-39" d="M 3256 2291 
Q 3256 1703 3145 1261 
Q 3034 819 2828 525 
Q 2622 231 2326 84 
Q 2031 -63 1663 -63 
Q 1409 -63 1206 -11 
Q 1003 41 843 150 
Q 684 259 571 434 
Q 459 609 391 856 
L 928 941 
Q 1016 656 1202 523 
Q 1388 391 1672 391 
Q 1900 391 2089 498 
Q 2278 606 2411 822 
Q 2544 1038 2619 1363 
Q 2694 1688 2700 2125 
Q 2634 1978 2520 1862 
Q 2406 1747 2261 1667 
Q 2116 1588 1947 1545 
Q 1778 1503 1606 1503 
Q 1306 1503 1064 1611 
Q 822 1719 653 1912 
Q 484 2106 392 2379 
Q 300 2653 300 2988 
Q 300 3328 398 3603 
Q 497 3878 684 4070 
Q 872 4263 1145 4366 
Q 1419 4469 1766 4469 
Q 2500 4469 2878 3925 
Q 3256 3381 3256 2291 
z
M 2644 2834 
Q 2644 3078 2586 3293 
Q 2528 3509 2414 3668 
Q 2300 3828 2133 3920 
Q 1966 4013 1747 4013 
Q 1544 4013 1381 3941 
Q 1219 3869 1106 3736 
Q 994 3603 933 3412 
Q 872 3222 872 2988 
Q 872 2766 926 2575 
Q 981 2384 1090 2245 
Q 1200 2106 1362 2026 
Q 1525 1947 1741 1947 
Q 1897 1947 2058 2000 
Q 2219 2053 2348 2162 
Q 2478 2272 2561 2439 
Q 2644 2606 2644 2834 
z
" transform="scale(0.015625)"/>
       </defs>
       <use xlink:href="#LiberationSans-32"/>
       <use xlink:href="#LiberationSans-30" x="55.615234"/>
       <use xlink:href="#LiberationSans-32" x="111.230469"/>
       <use xlink:href="#LiberationSans-33" x="166.845703"/>
       <use xlink:href="#LiberationSans-2d" x="222.460938"/>
       <use xlink:href="#LiberationSans-30" x="255.761719"/>
       <use xlink:href="#LiberationSans-39" x="311.376953"/>
       <use xlink:href="#LiberationSans-2d" x="366.992188"/>
       <use xlink:href="#LiberationSans-30" x="400.292969"/>
       <use xlink:href="#LiberationSans-31" x="455.908203"/>
      </g>
     </g>
    </g>
    <g id="xtick_8">
     <g id="line2d_15">
      <path d="M 239.212185 302.352885 
L 239.212185 17.69649 
" clip-path="url(#p0bafeafc14)" style="fill: none; stroke: #ffffff; stroke-width: 0.8; stroke-linecap: round"/>
     </g>
     <g id="line2d_16"/>
     <g id="text_8">
      <!-- 2023-10-01 -->
      <g style="fill: #262626" transform="translate(241.798123 356.99976) rotate(-90) scale(0.1 -0.1)">
       <use xlink:href="#LiberationSans-32"/>
       <use xlink:href="#LiberationSans-30" x="55.615234"/>
       <use xlink:href="#LiberationSans-32" x="111.230469"/>
       <use xlink:href="#LiberationSans-33" x="166.845703"/>
       <use xlink:href="#LiberationSans-2d" x="222.460938"/>
       <use xlink:href="#LiberationSans-31" x="255.761719"/>
       <use xlink:href="#LiberationSans-30" x="311.376953"/>
       <use xlink:href="#LiberationSans-2d" x="366.992188"/>
       <use xlink:href="#LiberationSans-30" x="400.292969"/>
       <use xlink:href="#LiberationSans-31" x="455.908203"/>
      </g>
     </g>
    </g>
    <g id="xtick_9">
     <g id="line2d_17">
      <path d="M 267.261561 302.352885 
L 267.261561 17.69649 
" clip-path="url(#p0bafeafc14)" style="fill: none; stroke: #ffffff; stroke-width: 0.8; stroke-linecap: round"/>
     </g>
     <g id="line2d_18"/>
     <g id="text_9">
      <!-- 2023-11-01 -->
      <g style="fill: #262626" transform="translate(269.847499 356.99976) rotate(-90) scale(0.1 -0.1)">
       <use xlink:href="#LiberationSans-32"/>
       <use xlink:href="#LiberationSans-30" x="55.615234"/>
       <use xlink:href="#LiberationSans-32" x="111.230469"/>
       <use xlink:href="#LiberationSans-33" x="166.845703"/>
       <use xlink:href="#LiberationSans-2d" x="222.460938"/>
       <use xlink:href="#LiberationSans-31" x="255.761719"/>
       <use xlink:href="#LiberationSans-31" x="311.376953"/>
       <use xlink:href="#LiberationSans-2d" x="366.992188"/>
       <use xlink:href="#LiberationSans-30" x="400.292969"/>
       <use xlink:href="#LiberationSans-31" x="455.908203"/>
      </g>
     </g>
    </g>
    <g id="xtick_10">
     <g id="line2d_19">
      <path d="M 295.310938 302.352885 
L 295.310938 17.69649 
" clip-path="url(#p0bafeafc14)" style="fill: none; stroke: #ffffff; stroke-width: 0.8; stroke-linecap: round"/>
     </g>
     <g id="line2d_20"/>
     <g id="text_10">
      <!-- 2023-12-01 -->
      <g style="fill: #262626" transform="translate(297.896875 356.99976) rotate(-90) scale(0.1 -0.1)">
       <use xlink:href="#LiberationSans-32"/>
       <use xlink:href="#LiberationSans-30" x="55.615234"/>
       <use xlink:href="#LiberationSans-32" x="111.230469"/>
       <use xlink:href="#LiberationSans-33" x="166.845703"/>
       <use xlink:href="#LiberationSans-2d" x="222.460938"/>
       <use xlink:href="#LiberationSans-31" x="255.761719"/>
       <use xlink:href="#LiberationSans-32" x="311.376953"/>
       <use xlink:href="#LiberationSans-2d" x="366.992188"/>
       <use xlink:href="#LiberationSans-30" x="400.292969"/>
       <use xlink:href="#LiberationSans-31" x="455.908203"/>
      </g>
     </g>
    </g>
    <g id="xtick_11">
     <g id="line2d_21">
      <path d="M 323.360314 302.352885 
L 323.360314 17.69649 
" clip-path="url(#p0bafeafc14)" style="fill: none; stroke: #ffffff; stroke-width: 0.8; stroke-linecap: round"/>
     </g>
     <g id="line2d_22"/>
     <g id="text_11">
      <!-- 2024-01-01 -->
      <g style="fill: #262626" transform="translate(325.946251 356.99976) rotate(-90) scale(0.1 -0.1)">
       <use xlink:href="#LiberationSans-32"/>
       <use xlink:href="#LiberationSans-30" x="55.615234"/>
       <use xlink:href="#LiberationSans-32" x="111.230469"/>
       <use xlink:href="#LiberationSans-34" x="166.845703"/>
       <use xlink:href="#LiberationSans-2d" x="222.460938"/>
       <use xlink:href="#LiberationSans-30" x="255.761719"/>
       <use xlink:href="#LiberationSans-31" x="311.376953"/>
       <use xlink:href="#LiberationSans-2d" x="366.992188"/>
       <use xlink:href="#LiberationSans-30" x="400.292969"/>
       <use xlink:href="#LiberationSans-31" x="455.908203"/>
      </g>
     </g>
    </g>
    <g id="xtick_12">
     <g id="line2d_23">
      <path d="M 351.40969 302.352885 
L 351.40969 17.69649 
" clip-path="url(#p0bafeafc14)" style="fill: none; stroke: #ffffff; stroke-width: 0.8; stroke-linecap: round"/>
     </g>
     <g id="line2d_24"/>
     <g id="text_12">
      <!-- 2024-02-01 -->
      <g style="fill: #262626" transform="translate(353.995627 356.99976) rotate(-90) scale(0.1 -0.1)">
       <use xlink:href="#LiberationSans-32"/>
       <use xlink:href="#LiberationSans-30" x="55.615234"/>
       <use xlink:href="#LiberationSans-32" x="111.230469"/>
       <use xlink:href="#LiberationSans-34" x="166.845703"/>
       <use xlink:href="#LiberationSans-2d" x="222.460938"/>
       <use xlink:href="#LiberationSans-30" x="255.761719"/>
       <use xlink:href="#LiberationSans-32" x="311.376953"/>
       <use xlink:href="#LiberationSans-2d" x="366.992188"/>
       <use xlink:href="#LiberationSans-30" x="400.292969"/>
       <use xlink:href="#LiberationSans-31" x="455.908203"/>
      </g>
     </g>
    </g>
    <g id="xtick_13">
     <g id="line2d_25">
      <path d="M 379.459066 302.352885 
L 379.459066 17.69649 
" clip-path="url(#p0bafeafc14)" style="fill: none; stroke: #ffffff; stroke-width: 0.8; stroke-linecap: round"/>
     </g>
     <g id="line2d_26"/>
     <g id="text_13">
      <!-- 2024-03-01 -->
      <g style="fill: #262626" transform="translate(382.045003 356.99976) rotate(-90) scale(0.1 -0.1)">
       <use xlink:href="#LiberationSans-32"/>
       <use xlink:href="#LiberationSans-30" x="55.615234"/>
       <use xlink:href="#LiberationSans-32" x="111.230469"/>
       <use xlink:href="#LiberationSans-34" x="166.845703"/>
       <use xlink:href="#LiberationSans-2d" x="222.460938"/>
       <use xlink:href="#LiberationSans-30" x="255.761719"/>
       <use xlink:href="#LiberationSans-33" x="311.376953"/>
       <use xlink:href="#LiberationSans-2d" x="366.992188"/>
       <use xlink:href="#LiberationSans-30" x="400.292969"/>
       <use xlink:href="#LiberationSans-31" x="455.908203"/>
      </g>
     </g>
    </g>
    <g id="xtick_14">
     <g id="line2d_27">
      <path d="M 407.508442 302.352885 
L 407.508442 17.69649 
" clip-path="url(#p0bafeafc14)" style="fill: none; stroke: #ffffff; stroke-width: 0.8; stroke-linecap: round"/>
     </g>
     <g id="line2d_28"/>
     <g id="text_14">
      <!-- 2024-04-01 -->
      <g style="fill: #262626" transform="translate(410.094379 356.99976) rotate(-90) scale(0.1 -0.1)">
       <use xlink:href="#LiberationSans-32"/>
       <use xlink:href="#LiberationSans-30" x="55.615234"/>
       <use xlink:href="#LiberationSans-32" x="111.230469"/>
       <use xlink:href="#LiberationSans-34" x="166.845703"/>
       <use xlink:href="#LiberationSans-2d" x="222.460938"/>
       <use xlink:href="#LiberationSans-30" x="255.761719"/>
       <use xlink:href="#LiberationSans-34" x="311.376953"/>
       <use xlink:href="#LiberationSans-2d" x="366.992188"/>
       <use xlink:href="#LiberationSans-30" x="400.292969"/>
       <use xlink:href="#LiberationSans-31" x="455.908203"/>
      </g>
     </g>
    </g>
    <g id="xtick_15">
     <g id="line2d_29">
      <path d="M 435.557818 302.352885 
L 435.557818 17.69649 
" clip-path="url(#p0bafeafc14)" style="fill: none; stroke: #ffffff; stroke-width: 0.8; stroke-linecap: round"/>
     </g>
     <g id="line2d_30"/>
     <g id="text_15">
      <!-- 2024-05-01 -->
      <g style="fill: #262626" transform="translate(438.143755 356.99976) rotate(-90) scale(0.1 -0.1)">
       <use xlink:href="#LiberationSans-32"/>
       <use xlink:href="#LiberationSans-30" x="55.615234"/>
       <use xlink:href="#LiberationSans-32" x="111.230469"/>
       <use xlink:href="#LiberationSans-34" x="166.845703"/>
       <use xlink:href="#LiberationSans-2d" x="222.460938"/>
       <use xlink:href="#LiberationSans-30" x="255.761719"/>
       <use xlink:href="#LiberationSans-35" x="311.376953"/>
       <use xlink:href="#LiberationSans-2d" x="366.992188"/>
       <use xlink:href="#LiberationSans-30" x="400.292969"/>
       <use xlink:href="#LiberationSans-31" x="455.908203"/>
      </g>
     </g>
    </g>
    <g id="xtick_16">
     <g id="line2d_31">
      <path d="M 463.607194 302.352885 
L 463.607194 17.69649 
" clip-path="url(#p0bafeafc14)" style="fill: none; stroke: #ffffff; stroke-width: 0.8; stroke-linecap: round"/>
     </g>
     <g id="line2d_32"/>
     <g id="text_16">
      <!-- 2024-06-01 -->
      <g style="fill: #262626" transform="translate(466.193131 356.99976) rotate(-90) scale(0.1 -0.1)">
       <use xlink:href="#LiberationSans-32"/>
       <use xlink:href="#LiberationSans-30" x="55.615234"/>
       <use xlink:href="#LiberationSans-32" x="111.230469"/>
       <use xlink:href="#LiberationSans-34" x="166.845703"/>
       <use xlink:href="#LiberationSans-2d" x="222.460938"/>
       <use xlink:href="#LiberationSans-30" x="255.761719"/>
       <use xlink:href="#LiberationSans-36" x="311.376953"/>
       <use xlink:href="#LiberationSans-2d" x="366.992188"/>
       <use xlink:href="#LiberationSans-30" x="400.292969"/>
       <use xlink:href="#LiberationSans-31" x="455.908203"/>
      </g>
     </g>
    </g>
    <g id="xtick_17">
     <g id="line2d_33">
      <path d="M 491.65657 302.352885 
L 491.65657 17.69649 
" clip-path="url(#p0bafeafc14)" style="fill: none; stroke: #ffffff; stroke-width: 0.8; stroke-linecap: round"/>
     </g>
     <g id="line2d_34"/>
     <g id="text_17">
      <!-- 2024-07-01 -->
      <g style="fill: #262626" transform="translate(494.242507 356.99976) rotate(-90) scale(0.1 -0.1)">
       <use xlink:href="#LiberationSans-32"/>
       <use xlink:href="#LiberationSans-30" x="55.615234"/>
       <use xlink:href="#LiberationSans-32" x="111.230469"/>
       <use xlink:href="#LiberationSans-34" x="166.845703"/>
       <use xlink:href="#LiberationSans-2d" x="222.460938"/>
       <use xlink:href="#LiberationSans-30" x="255.761719"/>
       <use xlink:href="#LiberationSans-37" x="311.376953"/>
       <use xlink:href="#LiberationSans-2d" x="366.992188"/>
       <use xlink:href="#LiberationSans-30" x="400.292969"/>
       <use xlink:href="#LiberationSans-31" x="455.908203"/>
      </g>
     </g>
    </g>
    <g id="xtick_18">
     <g id="line2d_35">
      <path d="M 519.705946 302.352885 
L 519.705946 17.69649 
" clip-path="url(#p0bafeafc14)" style="fill: none; stroke: #ffffff; stroke-width: 0.8; stroke-linecap: round"/>
     </g>
     <g id="line2d_36"/>
     <g id="text_18">
      <!-- 2024-08-01 -->
      <g style="fill: #262626" transform="translate(522.291883 356.99976) rotate(-90) scale(0.1 -0.1)">
       <use xlink:href="#LiberationSans-32"/>
       <use xlink:href="#LiberationSans-30" x="55.615234"/>
       <use xlink:href="#LiberationSans-32" x="111.230469"/>
       <use xlink:href="#LiberationSans-34" x="166.845703"/>
       <use xlink:href="#LiberationSans-2d" x="222.460938"/>
       <use xlink:href="#LiberationSans-30" x="255.761719"/>
       <use xlink:href="#LiberationSans-38" x="311.376953"/>
       <use xlink:href="#LiberationSans-2d" x="366.992188"/>
       <use xlink:href="#LiberationSans-30" x="400.292969"/>
       <use xlink:href="#LiberationSans-31" x="455.908203"/>
      </g>
     </g>
    </g>
    <g id="xtick_19">
     <g id="line2d_37">
      <path d="M 547.755322 302.352885 
L 547.755322 17.69649 
" clip-path="url(#p0bafeafc14)" style="fill: none; stroke: #ffffff; stroke-width: 0.8; stroke-linecap: round"/>
     </g>
     <g id="line2d_38"/>
     <g id="text_19">
      <!-- 2024-09-01 -->
      <g style="fill: #262626" transform="translate(550.341259 356.99976) rotate(-90) scale(0.1 -0.1)">
       <use xlink:href="#LiberationSans-32"/>
       <use xlink:href="#LiberationSans-30" x="55.615234"/>
       <use xlink:href="#LiberationSans-32" x="111.230469"/>
       <use xlink:href="#LiberationSans-34" x="166.845703"/>
       <use xlink:href="#LiberationSans-2d" x="222.460938"/>
       <use xlink:href="#LiberationSans-30" x="255.761719"/>
       <use xlink:href="#LiberationSans-39" x="311.376953"/>
       <use xlink:href="#LiberationSans-2d" x="366.992188"/>
       <use xlink:href="#LiberationSans-30" x="400.292969"/>
       <use xlink:href="#LiberationSans-31" x="455.908203"/>
      </g>
     </g>
    </g>
   </g>
   <g id="matplotlib.axis_2">
    <g id="ytick_1">
     <g id="line2d_39">
      <path d="M 17.622115 289.413958 
L 572.99976 289.413958 
" clip-path="url(#p0bafeafc14)" style="fill: none; stroke: #ffffff; stroke-width: 0.8; stroke-linecap: round"/>
     </g>
     <g id="line2d_40"/>
     <g id="text_20">
      <!-- 7 -->
      <g style="fill: #262626" transform="translate(8.561177 293.037395) scale(0.1 -0.1)">
       <use xlink:href="#LiberationSans-37"/>
      </g>
     </g>
    </g>
    <g id="ytick_2">
     <g id="line2d_41">
      <path d="M 17.622115 237.65825 
L 572.99976 237.65825 
" clip-path="url(#p0bafeafc14)" style="fill: none; stroke: #ffffff; stroke-width: 0.8; stroke-linecap: round"/>
     </g>
     <g id="line2d_42"/>
     <g id="text_21">
      <!-- 8 -->
      <g style="fill: #262626" transform="translate(8.561177 241.281687) scale(0.1 -0.1)">
       <use xlink:href="#LiberationSans-38"/>
      </g>
     </g>
    </g>
    <g id="ytick_3">
     <g id="line2d_43">
      <path d="M 17.622115 185.902542 
L 572.99976 185.902542 
" clip-path="url(#p0bafeafc14)" style="fill: none; stroke: #ffffff; stroke-width: 0.8; stroke-linecap: round"/>
     </g>
     <g id="line2d_44"/>
     <g id="text_22">
      <!-- 9 -->
      <g style="fill: #262626" transform="translate(8.561177 189.525979) scale(0.1 -0.1)">
       <use xlink:href="#LiberationSans-39"/>
      </g>
     </g>
    </g>
    <g id="ytick_4">
     <g id="line2d_45">
      <path d="M 17.622115 134.146833 
L 572.99976 134.146833 
" clip-path="url(#p0bafeafc14)" style="fill: none; stroke: #ffffff; stroke-width: 0.8; stroke-linecap: round"/>
     </g>
     <g id="line2d_46"/>
     <g id="text_23">
      <!-- 10 -->
      <g style="fill: #262626" transform="translate(3.00024 137.770271) scale(0.1 -0.1)">
       <use xlink:href="#LiberationSans-31"/>
       <use xlink:href="#LiberationSans-30" x="55.615234"/>
      </g>
     </g>
    </g>
    <g id="ytick_5">
     <g id="line2d_47">
      <path d="M 17.622115 82.391125 
L 572.99976 82.391125 
" clip-path="url(#p0bafeafc14)" style="fill: none; stroke: #ffffff; stroke-width: 0.8; stroke-linecap: round"/>
     </g>
     <g id="line2d_48"/>
     <g id="text_24">
      <!-- 11 -->
      <g style="fill: #262626" transform="translate(3.00024 86.014563) scale(0.1 -0.1)">
       <use xlink:href="#LiberationSans-31"/>
       <use xlink:href="#LiberationSans-31" x="55.615234"/>
      </g>
     </g>
    </g>
    <g id="ytick_6">
     <g id="line2d_49">
      <path d="M 17.622115 30.635417 
L 572.99976 30.635417 
" clip-path="url(#p0bafeafc14)" style="fill: none; stroke: #ffffff; stroke-width: 0.8; stroke-linecap: round"/>
     </g>
     <g id="line2d_50"/>
     <g id="text_25">
      <!-- 12 -->
      <g style="fill: #262626" transform="translate(3.00024 34.258855) scale(0.1 -0.1)">
       <use xlink:href="#LiberationSans-31"/>
       <use xlink:href="#LiberationSans-32" x="55.615234"/>
      </g>
     </g>
    </g>
   </g>
   <g id="line2d_51">
    <path d="M 42.866553 82.391125 
L 70.915929 82.391125 
L 98.965305 82.391125 
L 127.014681 82.391125 
L 155.064057 289.413958 
L 183.113433 82.391125 
L 211.162809 82.391125 
L 239.212185 82.391125 
L 267.261561 82.391125 
L 295.310938 82.391125 
L 323.360314 82.391125 
L 351.40969 134.146833 
L 379.459066 82.391125 
L 407.508442 82.391125 
L 435.557818 82.391125 
L 463.607194 82.391125 
L 491.65657 30.635417 
L 519.705946 134.146833 
L 547.755322 134.146833 
" clip-path="url(#p0bafeafc14)" style="fill: none; stroke: #1f77b4; stroke-width: 1.5; stroke-linecap: round"/>
   </g>
   <g id="patch_3">
    <path d="M 17.622115 302.352885 
L 17.622115 17.69649 
" style="fill: none"/>
   </g>
   <g id="patch_4">
    <path d="M 572.99976 302.352885 
L 572.99976 17.69649 
" style="fill: none"/>
   </g>
   <g id="patch_5">
    <path d="M 17.622115 302.352885 
L 572.99976 302.352885 
" style="fill: none"/>
   </g>
   <g id="patch_6">
    <path d="M 17.622115 17.69649 
L 572.99976 17.69649 
" style="fill: none"/>
   </g>
   <g id="text_26">
    <!-- #Stef Over Time -->
    <g style="fill: #262626" transform="translate(251.964688 11.69649) scale(0.12 -0.12)">
     <defs>
      <path id="LiberationSans-23" d="M 2800 2766 
L 2556 1613 
L 3369 1613 
L 3369 1275 
L 2484 1275 
L 2209 0 
L 1866 0 
L 2134 1275 
L 1000 1275 
L 738 0 
L 394 0 
L 656 1275 
L 28 1275 
L 28 1613 
L 731 1613 
L 975 2766 
L 188 2766 
L 188 3103 
L 1044 3103 
L 1322 4378 
L 1666 4378 
L 1391 3103 
L 2525 3103 
L 2800 4378 
L 3144 4378 
L 2869 3103 
L 3528 3103 
L 3528 2766 
L 2800 2766 
z
M 1328 2766 
L 1078 1613 
L 2209 1613 
L 2453 2766 
L 1328 2766 
z
" transform="scale(0.015625)"/>
      <path id="LiberationSans-53" d="M 3975 1216 
Q 3975 938 3867 703 
Q 3759 469 3534 298 
Q 3309 128 2967 32 
Q 2625 -63 2156 -63 
Q 1334 -63 875 225 
Q 416 513 291 1056 
L 869 1172 
Q 913 1000 1003 859 
Q 1094 719 1248 617 
Q 1403 516 1631 459 
Q 1859 403 2178 403 
Q 2444 403 2666 448 
Q 2888 494 3047 587 
Q 3206 681 3295 829 
Q 3384 978 3384 1184 
Q 3384 1400 3286 1534 
Q 3188 1669 3009 1756 
Q 2831 1844 2584 1903 
Q 2338 1963 2038 2031 
Q 1853 2072 1667 2120 
Q 1481 2169 1311 2236 
Q 1141 2303 991 2393 
Q 841 2484 731 2611 
Q 622 2738 559 2905 
Q 497 3072 497 3291 
Q 497 3603 623 3826 
Q 750 4050 975 4194 
Q 1200 4338 1506 4403 
Q 1813 4469 2169 4469 
Q 2578 4469 2868 4405 
Q 3159 4341 3359 4212 
Q 3559 4084 3679 3895 
Q 3800 3706 3872 3456 
L 3284 3353 
Q 3241 3513 3158 3638 
Q 3075 3763 2940 3847 
Q 2806 3931 2614 3975 
Q 2422 4019 2163 4019 
Q 1856 4019 1648 3964 
Q 1441 3909 1314 3815 
Q 1188 3722 1133 3595 
Q 1078 3469 1078 3322 
Q 1078 3125 1176 2998 
Q 1275 2872 1444 2787 
Q 1613 2703 1834 2647 
Q 2056 2591 2306 2534 
Q 2509 2488 2711 2439 
Q 2913 2391 3097 2323 
Q 3281 2256 3442 2165 
Q 3603 2075 3722 1944 
Q 3841 1813 3908 1634 
Q 3975 1456 3975 1216 
z
" transform="scale(0.015625)"/>
      <path id="LiberationSans-74" d="M 1731 25 
Q 1603 -9 1470 -29 
Q 1338 -50 1163 -50 
Q 488 -50 488 716 
L 488 2972 
L 97 2972 
L 97 3381 
L 509 3381 
L 675 4138 
L 1050 4138 
L 1050 3381 
L 1675 3381 
L 1675 2972 
L 1050 2972 
L 1050 838 
Q 1050 594 1129 495 
Q 1209 397 1406 397 
Q 1488 397 1564 409 
Q 1641 422 1731 441 
L 1731 25 
z
" transform="scale(0.015625)"/>
      <path id="LiberationSans-65" d="M 863 1572 
Q 863 1306 917 1082 
Q 972 859 1086 698 
Q 1200 538 1378 448 
Q 1556 359 1806 359 
Q 2172 359 2392 506 
Q 2613 653 2691 878 
L 3184 738 
Q 3131 597 3036 455 
Q 2941 313 2781 198 
Q 2622 84 2383 10 
Q 2144 -63 1806 -63 
Q 1056 -63 664 384 
Q 272 831 272 1713 
Q 272 2188 390 2517 
Q 509 2847 715 3053 
Q 922 3259 1197 3351 
Q 1472 3444 1784 3444 
Q 2209 3444 2495 3306 
Q 2781 3169 2954 2926 
Q 3128 2684 3201 2356 
Q 3275 2028 3275 1647 
L 3275 1572 
L 863 1572 
z
M 2694 2003 
Q 2647 2538 2422 2783 
Q 2197 3028 1775 3028 
Q 1634 3028 1479 2983 
Q 1325 2938 1194 2822 
Q 1063 2706 972 2507 
Q 881 2309 869 2003 
L 2694 2003 
z
" transform="scale(0.015625)"/>
      <path id="LiberationSans-66" d="M 1128 2972 
L 1128 0 
L 566 0 
L 566 2972 
L 91 2972 
L 91 3381 
L 566 3381 
L 566 3763 
Q 566 3947 600 4105 
Q 634 4263 726 4380 
Q 819 4497 978 4564 
Q 1138 4631 1391 4631 
Q 1491 4631 1598 4622 
Q 1706 4613 1788 4594 
L 1788 4166 
Q 1734 4175 1664 4183 
Q 1594 4191 1538 4191 
Q 1413 4191 1333 4156 
Q 1253 4122 1208 4058 
Q 1163 3994 1145 3900 
Q 1128 3806 1128 3684 
L 1128 3381 
L 1788 3381 
L 1788 2972 
L 1128 2972 
z
" transform="scale(0.015625)"/>
      <path id="LiberationSans-20" transform="scale(0.015625)"/>
      <path id="LiberationSans-4f" d="M 4672 2222 
Q 4672 1706 4523 1284 
Q 4375 863 4094 563 
Q 3813 263 3406 100 
Q 3000 -63 2484 -63 
Q 1941 -63 1531 107 
Q 1122 278 850 583 
Q 578 888 440 1306 
Q 303 1725 303 2222 
Q 303 2738 447 3153 
Q 591 3569 869 3861 
Q 1147 4153 1555 4311 
Q 1963 4469 2491 4469 
Q 3016 4469 3423 4309 
Q 3831 4150 4107 3856 
Q 4384 3563 4528 3147 
Q 4672 2731 4672 2222 
z
M 4063 2222 
Q 4063 2619 3961 2944 
Q 3859 3269 3661 3500 
Q 3463 3731 3169 3856 
Q 2875 3981 2491 3981 
Q 2097 3981 1800 3856 
Q 1503 3731 1304 3500 
Q 1106 3269 1007 2944 
Q 909 2619 909 2222 
Q 909 1825 1011 1495 
Q 1113 1166 1311 927 
Q 1509 688 1804 555 
Q 2100 422 2484 422 
Q 2897 422 3195 556 
Q 3494 691 3686 930 
Q 3878 1169 3970 1500 
Q 4063 1831 4063 2222 
z
" transform="scale(0.015625)"/>
      <path id="LiberationSans-76" d="M 1916 0 
L 1250 0 
L 22 3381 
L 622 3381 
L 1366 1181 
Q 1388 1113 1417 1014 
Q 1447 916 1478 809 
Q 1509 703 1536 604 
Q 1563 506 1581 441 
Q 1600 506 1629 604 
Q 1659 703 1690 806 
Q 1722 909 1755 1007 
Q 1788 1106 1813 1175 
L 2581 3381 
L 3178 3381 
L 1916 0 
z
" transform="scale(0.015625)"/>
      <path id="LiberationSans-72" d="M 444 0 
L 444 2594 
Q 444 2700 442 2811 
Q 441 2922 437 3025 
Q 434 3128 431 3218 
Q 428 3309 425 3381 
L 956 3381 
Q 959 3309 964 3217 
Q 969 3125 973 3028 
Q 978 2931 979 2842 
Q 981 2753 981 2691 
L 994 2691 
Q 1053 2884 1120 3026 
Q 1188 3169 1278 3261 
Q 1369 3353 1494 3398 
Q 1619 3444 1797 3444 
Q 1866 3444 1928 3433 
Q 1991 3422 2025 3413 
L 2025 2897 
Q 1969 2913 1894 2920 
Q 1819 2928 1725 2928 
Q 1531 2928 1395 2840 
Q 1259 2753 1173 2598 
Q 1088 2444 1047 2230 
Q 1006 2016 1006 1763 
L 1006 0 
L 444 0 
z
" transform="scale(0.015625)"/>
      <path id="LiberationSans-54" d="M 2250 3916 
L 2250 0 
L 1656 0 
L 1656 3916 
L 144 3916 
L 144 4403 
L 3763 4403 
L 3763 3916 
L 2250 3916 
z
" transform="scale(0.015625)"/>
      <path id="LiberationSans-69" d="M 428 4100 
L 428 4638 
L 991 4638 
L 991 4100 
L 428 4100 
z
M 428 0 
L 428 3381 
L 991 3381 
L 991 0 
L 428 0 
z
" transform="scale(0.015625)"/>
      <path id="LiberationSans-6d" d="M 2400 0 
L 2400 2144 
Q 2400 2391 2369 2556 
Q 2338 2722 2264 2823 
Q 2191 2925 2072 2967 
Q 1953 3009 1781 3009 
Q 1603 3009 1459 2939 
Q 1316 2869 1214 2736 
Q 1113 2603 1058 2408 
Q 1003 2213 1003 1959 
L 1003 0 
L 444 0 
L 444 2659 
Q 444 2766 442 2883 
Q 441 3000 437 3104 
Q 434 3209 431 3284 
Q 428 3359 425 3381 
L 956 3381 
Q 959 3366 962 3297 
Q 966 3228 970 3139 
Q 975 3050 978 2958 
Q 981 2866 981 2803 
L 991 2803 
Q 1066 2950 1153 3069 
Q 1241 3188 1358 3270 
Q 1475 3353 1626 3398 
Q 1778 3444 1978 3444 
Q 2363 3444 2586 3291 
Q 2809 3138 2897 2803 
L 2906 2803 
Q 2981 2950 3075 3069 
Q 3169 3188 3294 3270 
Q 3419 3353 3575 3398 
Q 3731 3444 3931 3444 
Q 4188 3444 4373 3375 
Q 4559 3306 4678 3162 
Q 4797 3019 4853 2792 
Q 4909 2566 4909 2253 
L 4909 0 
L 4353 0 
L 4353 2144 
Q 4353 2391 4322 2556 
Q 4291 2722 4217 2823 
Q 4144 2925 4025 2967 
Q 3906 3009 3734 3009 
Q 3556 3009 3412 2942 
Q 3269 2875 3167 2744 
Q 3066 2613 3011 2416 
Q 2956 2219 2956 1959 
L 2956 0 
L 2400 0 
z
" transform="scale(0.015625)"/>
     </defs>
     <use xlink:href="#LiberationSans-23"/>
     <use xlink:href="#LiberationSans-53" x="55.615234"/>
     <use xlink:href="#LiberationSans-74" x="122.314453"/>
     <use xlink:href="#LiberationSans-65" x="150.097656"/>
     <use xlink:href="#LiberationSans-66" x="205.712891"/>
     <use xlink:href="#LiberationSans-20" x="233.496094"/>
     <use xlink:href="#LiberationSans-4f" x="261.279297"/>
     <use xlink:href="#LiberationSans-76" x="339.0625"/>
     <use xlink:href="#LiberationSans-65" x="389.0625"/>
     <use xlink:href="#LiberationSans-72" x="444.677734"/>
     <use xlink:href="#LiberationSans-20" x="477.978516"/>
     <use xlink:href="#LiberationSans-54" x="504.011719"/>
     <use xlink:href="#LiberationSans-69" x="561.345703"/>
     <use xlink:href="#LiberationSans-6d" x="583.5625"/>
     <use xlink:href="#LiberationSans-65" x="666.863281"/>
    </g>
   </g>
  </g>
 </g>
 <defs>
  <clipPath id="p0bafeafc14">
   <rect x="17.622115" y="17.69649" width="555.377645" height="284.656395"/>
  </clipPath>
 </defs>
</svg>
