<?xml version="1.0" encoding="utf-8" standalone="no"?>
<!DOCTYPE svg PUBLIC "-//W3C//DTD SVG 1.1//EN"
  "http://www.w3.org/Graphics/SVG/1.1/DTD/svg11.dtd">
<svg xmlns:xlink="http://www.w3.org/1999/xlink" width="576pt" height="360pt" viewBox="0 0 576 360" xmlns="http://www.w3.org/2000/svg" version="1.1">
 <metadata>
  <rdf:RDF xmlns:dc="http://purl.org/dc/elements/1.1/" xmlns:cc="http://creativecommons.org/ns#" xmlns:rdf="http://www.w3.org/1999/02/22-rdf-syntax-ns#">
   <cc:Work>
    <dc:type rdf:resource="http://purl.org/dc/dcmitype/StillImage"/>
    <dc:date>2025-08-01T02:20:38.373151</dc:date>
    <dc:format>image/svg+xml</dc:format>
    <dc:creator>
     <cc:Agent>
      <dc:title>Matplotlib v3.8.2, https://matplotlib.org/</dc:title>
     </cc:Agent>
    </dc:creator>
   </cc:Work>
  </rdf:RDF>
 </metadata>
 <defs>
  <style type="text/css">*{stroke-linejoin: round; stroke-linecap: butt}</style>
 </defs>
 <g id="figure_1">
  <g id="patch_1">
   <path d="M 0 360 
L 576 360 
L 576 0 
L 0 0 
z
" style="fill: #ffffff"/>
  </g>
  <g id="axes_1">
   <g id="patch_2">
    <path d="M 12.520553 210.383557 
L 572.99976 210.383557 
L 572.99976 18.182115 
L 12.520553 18.182115 
z
" style="fill: #eaeaf2"/>
   </g>
   <g id="matplotlib.axis_1">
    <g id="xtick_1">
     <g id="line2d_1">
      <path d="M 73.136642 210.383557 
L 73.136642 18.182115 
" clip-path="url(#p45ada7fc41)" style="fill: none; stroke: #ffffff; stroke-width: 0.8; stroke-linecap: round"/>
     </g>
     <g id="line2d_2"/>
     <g id="text_1">
      <!-- Data Science -->
      <g style="fill: #262626" transform="translate(20.582036 270.378074) rotate(-45) scale(0.1 -0.1)">
       <defs>
        <path id="DejaVuSansMono-44" d="M 1363 519 
Q 2159 519 2475 911 
Q 2791 1303 2791 2328 
Q 2791 3363 2477 3755 
Q 2163 4147 1363 4147 
L 1063 4147 
L 1063 519 
L 1363 519 
z
M 1375 4666 
Q 2444 4666 2950 4097 
Q 3456 3528 3456 2328 
Q 3456 1134 2950 567 
Q 2444 0 1375 0 
L 428 0 
L 428 4666 
L 1375 4666 
z
" transform="scale(0.015625)"/>
        <path id="DejaVuSansMono-61" d="M 2194 1759 
L 2003 1759 
Q 1500 1759 1245 1582 
Q 991 1406 991 1056 
Q 991 741 1181 566 
Q 1372 391 1709 391 
Q 2184 391 2456 720 
Q 2728 1050 2731 1631 
L 2731 1759 
L 2194 1759 
z
M 3309 1997 
L 3309 0 
L 2731 0 
L 2731 519 
Q 2547 206 2267 57 
Q 1988 -91 1588 -91 
Q 1053 -91 734 211 
Q 416 513 416 1019 
Q 416 1603 808 1906 
Q 1200 2209 1959 2209 
L 2731 2209 
L 2731 2300 
Q 2728 2719 2518 2908 
Q 2309 3097 1850 3097 
Q 1556 3097 1256 3012 
Q 956 2928 672 2766 
L 672 3341 
Q 991 3463 1283 3523 
Q 1575 3584 1850 3584 
Q 2284 3584 2592 3456 
Q 2900 3328 3091 3072 
Q 3209 2916 3259 2686 
Q 3309 2456 3309 1997 
z
" transform="scale(0.015625)"/>
        <path id="DejaVuSansMono-74" d="M 1919 4494 
L 1919 3500 
L 3225 3500 
L 3225 3053 
L 1919 3053 
L 1919 1153 
Q 1919 766 2066 612 
Q 2213 459 2578 459 
L 3225 459 
L 3225 0 
L 2522 0 
Q 1875 0 1609 259 
Q 1344 519 1344 1153 
L 1344 3053 
L 409 3053 
L 409 3500 
L 1344 3500 
L 1344 4494 
L 1919 4494 
z
" transform="scale(0.015625)"/>
        <path id="DejaVuSansMono-20" transform="scale(0.015625)"/>
        <path id="DejaVuSansMono-53" d="M 3163 4506 
L 3163 3866 
Q 2875 4050 2586 4144 
Q 2297 4238 2003 4238 
Q 1556 4238 1297 4030 
Q 1038 3822 1038 3469 
Q 1038 3159 1208 2996 
Q 1378 2834 1844 2725 
L 2175 2650 
Q 2831 2497 3131 2169 
Q 3431 1841 3431 1275 
Q 3431 609 3018 259 
Q 2606 -91 1819 -91 
Q 1491 -91 1159 -20 
Q 828 50 494 191 
L 494 863 
Q 853 634 1173 528 
Q 1494 422 1819 422 
Q 2297 422 2562 636 
Q 2828 850 2828 1234 
Q 2828 1584 2645 1768 
Q 2463 1953 2009 2053 
L 1672 2131 
Q 1022 2278 728 2575 
Q 434 2872 434 3372 
Q 434 3997 854 4373 
Q 1275 4750 1972 4750 
Q 2241 4750 2537 4689 
Q 2834 4628 3163 4506 
z
" transform="scale(0.015625)"/>
        <path id="DejaVuSansMono-63" d="M 3316 178 
Q 3084 44 2839 -23 
Q 2594 -91 2338 -91 
Q 1525 -91 1067 396 
Q 609 884 609 1747 
Q 609 2609 1067 3096 
Q 1525 3584 2338 3584 
Q 2591 3584 2831 3518 
Q 3072 3453 3316 3316 
L 3316 2713 
Q 3088 2916 2858 3006 
Q 2628 3097 2338 3097 
Q 1797 3097 1506 2747 
Q 1216 2397 1216 1747 
Q 1216 1100 1508 748 
Q 1800 397 2338 397 
Q 2638 397 2875 489 
Q 3113 581 3316 775 
L 3316 178 
z
" transform="scale(0.015625)"/>
        <path id="DejaVuSansMono-69" d="M 800 3500 
L 2272 3500 
L 2272 447 
L 3413 447 
L 3413 0 
L 556 0 
L 556 447 
L 1697 447 
L 1697 3053 
L 800 3053 
L 800 3500 
z
M 1697 4863 
L 2272 4863 
L 2272 4134 
L 1697 4134 
L 1697 4863 
z
" transform="scale(0.015625)"/>
        <path id="DejaVuSansMono-65" d="M 3475 1894 
L 3475 1613 
L 984 1613 
L 984 1594 
Q 984 1022 1282 709 
Q 1581 397 2125 397 
Q 2400 397 2700 484 
Q 3000 572 3341 750 
L 3341 178 
Q 3013 44 2708 -23 
Q 2403 -91 2119 -91 
Q 1303 -91 843 398 
Q 384 888 384 1747 
Q 384 2584 834 3084 
Q 1284 3584 2034 3584 
Q 2703 3584 3089 3131 
Q 3475 2678 3475 1894 
z
M 2900 2063 
Q 2888 2569 2661 2833 
Q 2434 3097 2009 3097 
Q 1594 3097 1325 2822 
Q 1056 2547 1006 2059 
L 2900 2063 
z
" transform="scale(0.015625)"/>
        <path id="DejaVuSansMono-6e" d="M 3284 2169 
L 3284 0 
L 2706 0 
L 2706 2169 
Q 2706 2641 2540 2862 
Q 2375 3084 2022 3084 
Q 1619 3084 1401 2798 
Q 1184 2513 1184 1978 
L 1184 0 
L 609 0 
L 609 3500 
L 1184 3500 
L 1184 2975 
Q 1338 3275 1600 3429 
Q 1863 3584 2222 3584 
Q 2756 3584 3020 3232 
Q 3284 2881 3284 2169 
z
" transform="scale(0.015625)"/>
       </defs>
       <use xlink:href="#DejaVuSansMono-44"/>
       <use xlink:href="#DejaVuSansMono-61" x="60.205078"/>
       <use xlink:href="#DejaVuSansMono-74" x="120.410156"/>
       <use xlink:href="#DejaVuSansMono-61" x="180.615234"/>
       <use xlink:href="#DejaVuSansMono-20" x="240.820312"/>
       <use xlink:href="#DejaVuSansMono-53" x="301.025391"/>
       <use xlink:href="#DejaVuSansMono-63" x="361.230469"/>
       <use xlink:href="#DejaVuSansMono-69" x="421.435547"/>
       <use xlink:href="#DejaVuSansMono-65" x="481.640625"/>
       <use xlink:href="#DejaVuSansMono-6e" x="541.845703"/>
       <use xlink:href="#DejaVuSansMono-63" x="602.050781"/>
       <use xlink:href="#DejaVuSansMono-65" x="662.255859"/>
      </g>
     </g>
    </g>
    <g id="xtick_2">
     <g id="line2d_3">
      <path d="M 160.986048 210.383557 
L 160.986048 18.182115 
" clip-path="url(#p45ada7fc41)" style="fill: none; stroke: #ffffff; stroke-width: 0.8; stroke-linecap: round"/>
     </g>
     <g id="line2d_4"/>
     <g id="text_2">
      <!-- Didaktik der Mathematik -->
      <g style="fill: #262626" transform="translate(61.6044 317.205116) rotate(-45) scale(0.1 -0.1)">
       <defs>
        <path id="DejaVuSansMono-64" d="M 2681 3053 
L 2681 4863 
L 3256 4863 
L 3256 0 
L 2681 0 
L 2681 441 
Q 2538 181 2298 45 
Q 2059 -91 1747 -91 
Q 1113 -91 748 401 
Q 384 894 384 1759 
Q 384 2613 750 3098 
Q 1116 3584 1747 3584 
Q 2063 3584 2303 3448 
Q 2544 3313 2681 3053 
z
M 991 1747 
Q 991 1078 1203 737 
Q 1416 397 1831 397 
Q 2247 397 2464 740 
Q 2681 1084 2681 1747 
Q 2681 2413 2464 2755 
Q 2247 3097 1831 3097 
Q 1416 3097 1203 2756 
Q 991 2416 991 1747 
z
" transform="scale(0.015625)"/>
        <path id="DejaVuSansMono-6b" d="M 738 4863 
L 1331 4863 
L 1331 2047 
L 2841 3500 
L 3541 3500 
L 2163 2181 
L 3756 0 
L 3053 0 
L 1759 1806 
L 1331 1403 
L 1331 0 
L 738 0 
L 738 4863 
z
" transform="scale(0.015625)"/>
        <path id="DejaVuSansMono-72" d="M 3609 2778 
Q 3425 2922 3234 2987 
Q 3044 3053 2816 3053 
Q 2278 3053 1993 2715 
Q 1709 2378 1709 1741 
L 1709 0 
L 1131 0 
L 1131 3500 
L 1709 3500 
L 1709 2816 
Q 1853 3188 2151 3386 
Q 2450 3584 2859 3584 
Q 3072 3584 3256 3531 
Q 3441 3478 3609 3366 
L 3609 2778 
z
" transform="scale(0.015625)"/>
        <path id="DejaVuSansMono-4d" d="M 269 4666 
L 1113 4666 
L 1919 2291 
L 2731 4666 
L 3578 4666 
L 3578 0 
L 2994 0 
L 2994 4122 
L 2163 1663 
L 1684 1663 
L 850 4122 
L 850 0 
L 269 0 
L 269 4666 
z
" transform="scale(0.015625)"/>
        <path id="DejaVuSansMono-68" d="M 3284 2169 
L 3284 0 
L 2706 0 
L 2706 2169 
Q 2706 2641 2540 2862 
Q 2375 3084 2022 3084 
Q 1619 3084 1401 2798 
Q 1184 2513 1184 1978 
L 1184 0 
L 609 0 
L 609 4863 
L 1184 4863 
L 1184 2975 
Q 1338 3275 1600 3429 
Q 1863 3584 2222 3584 
Q 2756 3584 3020 3232 
Q 3284 2881 3284 2169 
z
" transform="scale(0.015625)"/>
        <path id="DejaVuSansMono-6d" d="M 2113 3144 
Q 2219 3369 2383 3476 
Q 2547 3584 2778 3584 
Q 3200 3584 3373 3257 
Q 3547 2931 3547 2028 
L 3547 0 
L 3022 0 
L 3022 2003 
Q 3022 2744 2939 2923 
Q 2856 3103 2638 3103 
Q 2388 3103 2295 2911 
Q 2203 2719 2203 2003 
L 2203 0 
L 1678 0 
L 1678 2003 
Q 1678 2753 1589 2928 
Q 1500 3103 1269 3103 
Q 1041 3103 952 2911 
Q 863 2719 863 2003 
L 863 0 
L 341 0 
L 341 3500 
L 863 3500 
L 863 3200 
Q 966 3388 1120 3486 
Q 1275 3584 1472 3584 
Q 1709 3584 1867 3475 
Q 2025 3366 2113 3144 
z
" transform="scale(0.015625)"/>
       </defs>
       <use xlink:href="#DejaVuSansMono-44"/>
       <use xlink:href="#DejaVuSansMono-69" x="60.205078"/>
       <use xlink:href="#DejaVuSansMono-64" x="120.410156"/>
       <use xlink:href="#DejaVuSansMono-61" x="180.615234"/>
       <use xlink:href="#DejaVuSansMono-6b" x="240.820312"/>
       <use xlink:href="#DejaVuSansMono-74" x="301.025391"/>
       <use xlink:href="#DejaVuSansMono-69" x="361.230469"/>
       <use xlink:href="#DejaVuSansMono-6b" x="421.435547"/>
       <use xlink:href="#DejaVuSansMono-20" x="481.640625"/>
       <use xlink:href="#DejaVuSansMono-64" x="541.845703"/>
       <use xlink:href="#DejaVuSansMono-65" x="602.050781"/>
       <use xlink:href="#DejaVuSansMono-72" x="662.255859"/>
       <use xlink:href="#DejaVuSansMono-20" x="722.460938"/>
       <use xlink:href="#DejaVuSansMono-4d" x="782.666016"/>
       <use xlink:href="#DejaVuSansMono-61" x="842.871094"/>
       <use xlink:href="#DejaVuSansMono-74" x="903.076172"/>
       <use xlink:href="#DejaVuSansMono-68" x="963.28125"/>
       <use xlink:href="#DejaVuSansMono-65" x="1023.486328"/>
       <use xlink:href="#DejaVuSansMono-6d" x="1083.691406"/>
       <use xlink:href="#DejaVuSansMono-61" x="1143.896484"/>
       <use xlink:href="#DejaVuSansMono-74" x="1204.101562"/>
       <use xlink:href="#DejaVuSansMono-69" x="1264.306641"/>
       <use xlink:href="#DejaVuSansMono-6b" x="1324.511719"/>
      </g>
     </g>
    </g>
    <g id="xtick_3">
     <g id="line2d_5">
      <path d="M 248.835453 210.383557 
L 248.835453 18.182115 
" clip-path="url(#p45ada7fc41)" style="fill: none; stroke: #ffffff; stroke-width: 0.8; stroke-linecap: round"/>
     </g>
     <g id="line2d_6"/>
     <g id="text_3">
      <!-- Nachwuchsforschungsgruppe CAROLL -->
      <g style="fill: #262626" transform="translate(111.092157 355.480585) rotate(-45) scale(0.1 -0.1)">
       <defs>
        <path id="DejaVuSansMono-4e" d="M 434 4666 
L 1234 4666 
L 2809 825 
L 2809 4666 
L 3419 4666 
L 3419 0 
L 2619 0 
L 1044 3841 
L 1044 0 
L 434 0 
L 434 4666 
z
" transform="scale(0.015625)"/>
        <path id="DejaVuSansMono-77" d="M 0 3500 
L 569 3500 
L 1178 672 
L 1678 2478 
L 2169 2478 
L 2675 672 
L 3284 3500 
L 3853 3500 
L 3034 0 
L 2484 0 
L 1925 1919 
L 1369 0 
L 819 0 
L 0 3500 
z
" transform="scale(0.015625)"/>
        <path id="DejaVuSansMono-75" d="M 609 1325 
L 609 3494 
L 1184 3494 
L 1184 1325 
Q 1184 853 1351 631 
Q 1519 409 1869 409 
Q 2275 409 2490 695 
Q 2706 981 2706 1516 
L 2706 3494 
L 3284 3494 
L 3284 0 
L 2706 0 
L 2706 525 
Q 2553 222 2289 65 
Q 2025 -91 1672 -91 
Q 1134 -91 871 261 
Q 609 613 609 1325 
z
" transform="scale(0.015625)"/>
        <path id="DejaVuSansMono-73" d="M 3041 3378 
L 3041 2816 
Q 2794 2959 2544 3031 
Q 2294 3103 2034 3103 
Q 1644 3103 1451 2976 
Q 1259 2850 1259 2591 
Q 1259 2356 1403 2240 
Q 1547 2125 2119 2016 
L 2350 1972 
Q 2778 1891 2998 1647 
Q 3219 1403 3219 1013 
Q 3219 494 2850 201 
Q 2481 -91 1825 -91 
Q 1566 -91 1281 -36 
Q 997 19 666 128 
L 666 722 
Q 988 556 1281 473 
Q 1575 391 1838 391 
Q 2219 391 2428 545 
Q 2638 700 2638 978 
Q 2638 1378 1872 1531 
L 1847 1538 
L 1631 1581 
Q 1134 1678 906 1908 
Q 678 2138 678 2534 
Q 678 3038 1018 3311 
Q 1359 3584 1991 3584 
Q 2272 3584 2531 3532 
Q 2791 3481 3041 3378 
z
" transform="scale(0.015625)"/>
        <path id="DejaVuSansMono-66" d="M 3322 4863 
L 3322 4384 
L 2669 4384 
Q 2359 4384 2239 4257 
Q 2119 4131 2119 3809 
L 2119 3500 
L 3322 3500 
L 3322 3053 
L 2119 3053 
L 2119 0 
L 1544 0 
L 1544 3053 
L 609 3053 
L 609 3500 
L 1544 3500 
L 1544 3744 
Q 1544 4319 1808 4591 
Q 2072 4863 2631 4863 
L 3322 4863 
z
" transform="scale(0.015625)"/>
        <path id="DejaVuSansMono-6f" d="M 1925 3097 
Q 1488 3097 1263 2756 
Q 1038 2416 1038 1747 
Q 1038 1081 1263 739 
Q 1488 397 1925 397 
Q 2366 397 2591 739 
Q 2816 1081 2816 1747 
Q 2816 2416 2591 2756 
Q 2366 3097 1925 3097 
z
M 1925 3584 
Q 2653 3584 3039 3112 
Q 3425 2641 3425 1747 
Q 3425 850 3040 379 
Q 2656 -91 1925 -91 
Q 1197 -91 812 379 
Q 428 850 428 1747 
Q 428 2641 812 3112 
Q 1197 3584 1925 3584 
z
" transform="scale(0.015625)"/>
        <path id="DejaVuSansMono-67" d="M 2681 1778 
Q 2681 2425 2470 2761 
Q 2259 3097 1856 3097 
Q 1434 3097 1212 2761 
Q 991 2425 991 1778 
Q 991 1131 1214 792 
Q 1438 453 1863 453 
Q 2259 453 2470 793 
Q 2681 1134 2681 1778 
z
M 3256 225 
Q 3256 -563 2884 -969 
Q 2513 -1375 1791 -1375 
Q 1553 -1375 1293 -1331 
Q 1034 -1288 775 -1203 
L 775 -634 
Q 1081 -778 1331 -847 
Q 1581 -916 1791 -916 
Q 2256 -916 2468 -662 
Q 2681 -409 2681 141 
L 2681 166 
L 2681 556 
Q 2544 263 2306 119 
Q 2069 -25 1728 -25 
Q 1116 -25 750 465 
Q 384 956 384 1778 
Q 384 2603 750 3093 
Q 1116 3584 1728 3584 
Q 2066 3584 2300 3450 
Q 2534 3316 2681 3034 
L 2681 3488 
L 3256 3488 
L 3256 225 
z
" transform="scale(0.015625)"/>
        <path id="DejaVuSansMono-70" d="M 1172 441 
L 1172 -1331 
L 594 -1331 
L 594 3500 
L 1172 3500 
L 1172 3053 
Q 1316 3313 1555 3448 
Q 1794 3584 2106 3584 
Q 2741 3584 3102 3093 
Q 3463 2603 3463 1734 
Q 3463 881 3100 395 
Q 2738 -91 2106 -91 
Q 1788 -91 1548 45 
Q 1309 181 1172 441 
z
M 2859 1747 
Q 2859 2416 2648 2756 
Q 2438 3097 2022 3097 
Q 1603 3097 1387 2755 
Q 1172 2413 1172 1747 
Q 1172 1084 1387 740 
Q 1603 397 2022 397 
Q 2438 397 2648 737 
Q 2859 1078 2859 1747 
z
" transform="scale(0.015625)"/>
        <path id="DejaVuSansMono-43" d="M 3353 166 
Q 3113 38 2859 -26 
Q 2606 -91 2322 -91 
Q 1425 -91 929 543 
Q 434 1178 434 2328 
Q 434 3472 932 4111 
Q 1431 4750 2322 4750 
Q 2606 4750 2859 4686 
Q 3113 4622 3353 4494 
L 3353 3847 
Q 3122 4038 2856 4138 
Q 2591 4238 2322 4238 
Q 1706 4238 1400 3763 
Q 1094 3288 1094 2328 
Q 1094 1372 1400 897 
Q 1706 422 2322 422 
Q 2597 422 2861 522 
Q 3125 622 3353 813 
L 3353 166 
z
" transform="scale(0.015625)"/>
        <path id="DejaVuSansMono-41" d="M 1925 4109 
L 1259 1722 
L 2591 1722 
L 1925 4109 
z
M 1544 4666 
L 2309 4666 
L 3738 0 
L 3084 0 
L 2741 1216 
L 1106 1216 
L 769 0 
L 116 0 
L 1544 4666 
z
" transform="scale(0.015625)"/>
        <path id="DejaVuSansMono-52" d="M 2375 2203 
Q 2619 2141 2791 1967 
Q 2963 1794 3219 1275 
L 3853 0 
L 3175 0 
L 2619 1178 
Q 2378 1681 2186 1826 
Q 1994 1972 1684 1972 
L 1081 1972 
L 1081 0 
L 447 0 
L 447 4666 
L 1747 4666 
Q 2516 4666 2925 4319 
Q 3334 3972 3334 3316 
Q 3334 2853 3082 2561 
Q 2831 2269 2375 2203 
z
M 1081 4147 
L 1081 2491 
L 1772 2491 
Q 2225 2491 2447 2694 
Q 2669 2897 2669 3316 
Q 2669 3719 2433 3933 
Q 2197 4147 1747 4147 
L 1081 4147 
z
" transform="scale(0.015625)"/>
        <path id="DejaVuSansMono-4f" d="M 2828 2328 
Q 2828 3356 2617 3797 
Q 2406 4238 1925 4238 
Q 1447 4238 1236 3797 
Q 1025 3356 1025 2328 
Q 1025 1303 1236 862 
Q 1447 422 1925 422 
Q 2406 422 2617 861 
Q 2828 1300 2828 2328 
z
M 3488 2328 
Q 3488 1109 3102 509 
Q 2716 -91 1925 -91 
Q 1134 -91 750 506 
Q 366 1103 366 2328 
Q 366 3550 752 4150 
Q 1138 4750 1925 4750 
Q 2716 4750 3102 4150 
Q 3488 3550 3488 2328 
z
" transform="scale(0.015625)"/>
        <path id="DejaVuSansMono-4c" d="M 672 4666 
L 1306 4666 
L 1306 531 
L 3559 531 
L 3559 0 
L 672 0 
L 672 4666 
z
" transform="scale(0.015625)"/>
       </defs>
       <use xlink:href="#DejaVuSansMono-4e"/>
       <use xlink:href="#DejaVuSansMono-61" x="60.205078"/>
       <use xlink:href="#DejaVuSansMono-63" x="120.410156"/>
       <use xlink:href="#DejaVuSansMono-68" x="180.615234"/>
       <use xlink:href="#DejaVuSansMono-77" x="240.820312"/>
       <use xlink:href="#DejaVuSansMono-75" x="301.025391"/>
       <use xlink:href="#DejaVuSansMono-63" x="361.230469"/>
       <use xlink:href="#DejaVuSansMono-68" x="421.435547"/>
       <use xlink:href="#DejaVuSansMono-73" x="481.640625"/>
       <use xlink:href="#DejaVuSansMono-66" x="541.845703"/>
       <use xlink:href="#DejaVuSansMono-6f" x="602.050781"/>
       <use xlink:href="#DejaVuSansMono-72" x="662.255859"/>
       <use xlink:href="#DejaVuSansMono-73" x="722.460938"/>
       <use xlink:href="#DejaVuSansMono-63" x="782.666016"/>
       <use xlink:href="#DejaVuSansMono-68" x="842.871094"/>
       <use xlink:href="#DejaVuSansMono-75" x="903.076172"/>
       <use xlink:href="#DejaVuSansMono-6e" x="963.28125"/>
       <use xlink:href="#DejaVuSansMono-67" x="1023.486328"/>
       <use xlink:href="#DejaVuSansMono-73" x="1083.691406"/>
       <use xlink:href="#DejaVuSansMono-67" x="1143.896484"/>
       <use xlink:href="#DejaVuSansMono-72" x="1204.101562"/>
       <use xlink:href="#DejaVuSansMono-75" x="1264.306641"/>
       <use xlink:href="#DejaVuSansMono-70" x="1324.511719"/>
       <use xlink:href="#DejaVuSansMono-70" x="1384.716797"/>
       <use xlink:href="#DejaVuSansMono-65" x="1444.921875"/>
       <use xlink:href="#DejaVuSansMono-20" x="1505.126953"/>
       <use xlink:href="#DejaVuSansMono-43" x="1565.332031"/>
       <use xlink:href="#DejaVuSansMono-41" x="1625.537109"/>
       <use xlink:href="#DejaVuSansMono-52" x="1685.742188"/>
       <use xlink:href="#DejaVuSansMono-4f" x="1745.947266"/>
       <use xlink:href="#DejaVuSansMono-4c" x="1806.152344"/>
       <use xlink:href="#DejaVuSansMono-4c" x="1866.357422"/>
      </g>
     </g>
    </g>
    <g id="xtick_4">
     <g id="line2d_7">
      <path d="M 336.684859 210.383557 
L 336.684859 18.182115 
" clip-path="url(#p45ada7fc41)" style="fill: none; stroke: #ffffff; stroke-width: 0.8; stroke-linecap: round"/>
     </g>
     <g id="line2d_8"/>
     <g id="text_4">
      <!-- Verteilte Informationssysteme -->
      <g style="fill: #262626" transform="translate(211.761188 342.747139) rotate(-45) scale(0.1 -0.1)">
       <defs>
        <path id="DejaVuSansMono-56" d="M 1925 531 
L 3022 4666 
L 3675 4666 
L 2309 0 
L 1544 0 
L 178 4666 
L 831 4666 
L 1925 531 
z
" transform="scale(0.015625)"/>
        <path id="DejaVuSansMono-6c" d="M 1997 1269 
Q 1997 881 2139 684 
Q 2281 488 2559 488 
L 3231 488 
L 3231 0 
L 2503 0 
Q 1988 0 1705 331 
Q 1422 663 1422 1269 
L 1422 4447 
L 500 4447 
L 500 4897 
L 1997 4897 
L 1997 1269 
z
" transform="scale(0.015625)"/>
        <path id="DejaVuSansMono-49" d="M 628 4666 
L 3219 4666 
L 3219 4134 
L 2241 4134 
L 2241 531 
L 3219 531 
L 3219 0 
L 628 0 
L 628 531 
L 1606 531 
L 1606 4134 
L 628 4134 
L 628 4666 
z
" transform="scale(0.015625)"/>
        <path id="DejaVuSansMono-79" d="M 2681 1125 
Q 2538 759 2316 163 
Q 2006 -663 1900 -844 
Q 1756 -1088 1540 -1209 
Q 1325 -1331 1038 -1331 
L 575 -1331 
L 575 -850 
L 916 -850 
Q 1169 -850 1312 -703 
Q 1456 -556 1678 56 
L 325 3500 
L 934 3500 
L 1972 763 
L 2994 3500 
L 3603 3500 
L 2681 1125 
z
" transform="scale(0.015625)"/>
       </defs>
       <use xlink:href="#DejaVuSansMono-56"/>
       <use xlink:href="#DejaVuSansMono-65" x="60.205078"/>
       <use xlink:href="#DejaVuSansMono-72" x="120.410156"/>
       <use xlink:href="#DejaVuSansMono-74" x="180.615234"/>
       <use xlink:href="#DejaVuSansMono-65" x="240.820312"/>
       <use xlink:href="#DejaVuSansMono-69" x="301.025391"/>
       <use xlink:href="#DejaVuSansMono-6c" x="361.230469"/>
       <use xlink:href="#DejaVuSansMono-74" x="421.435547"/>
       <use xlink:href="#DejaVuSansMono-65" x="481.640625"/>
       <use xlink:href="#DejaVuSansMono-20" x="541.845703"/>
       <use xlink:href="#DejaVuSansMono-49" x="602.050781"/>
       <use xlink:href="#DejaVuSansMono-6e" x="662.255859"/>
       <use xlink:href="#DejaVuSansMono-66" x="722.460938"/>
       <use xlink:href="#DejaVuSansMono-6f" x="782.666016"/>
       <use xlink:href="#DejaVuSansMono-72" x="842.871094"/>
       <use xlink:href="#DejaVuSansMono-6d" x="903.076172"/>
       <use xlink:href="#DejaVuSansMono-61" x="963.28125"/>
       <use xlink:href="#DejaVuSansMono-74" x="1023.486328"/>
       <use xlink:href="#DejaVuSansMono-69" x="1083.691406"/>
       <use xlink:href="#DejaVuSansMono-6f" x="1143.896484"/>
       <use xlink:href="#DejaVuSansMono-6e" x="1204.101562"/>
       <use xlink:href="#DejaVuSansMono-73" x="1264.306641"/>
       <use xlink:href="#DejaVuSansMono-73" x="1324.511719"/>
       <use xlink:href="#DejaVuSansMono-79" x="1384.716797"/>
       <use xlink:href="#DejaVuSansMono-73" x="1444.921875"/>
       <use xlink:href="#DejaVuSansMono-74" x="1505.126953"/>
       <use xlink:href="#DejaVuSansMono-65" x="1565.332031"/>
       <use xlink:href="#DejaVuSansMono-6d" x="1625.537109"/>
       <use xlink:href="#DejaVuSansMono-65" x="1685.742188"/>
      </g>
     </g>
    </g>
    <g id="xtick_5">
     <g id="line2d_9">
      <path d="M 424.534265 210.383557 
L 424.534265 18.182115 
" clip-path="url(#p45ada7fc41)" style="fill: none; stroke: #ffffff; stroke-width: 0.8; stroke-linecap: round"/>
     </g>
     <g id="line2d_10"/>
     <g id="text_5">
      <!-- Skalierbare Datenbanksysteme -->
      <g style="fill: #262626" transform="translate(303.867597 338.490135) rotate(-45) scale(0.1 -0.1)">
       <defs>
        <path id="DejaVuSansMono-62" d="M 2869 1747 
Q 2869 2416 2656 2756 
Q 2444 3097 2028 3097 
Q 1609 3097 1393 2755 
Q 1178 2413 1178 1747 
Q 1178 1084 1393 740 
Q 1609 397 2028 397 
Q 2444 397 2656 737 
Q 2869 1078 2869 1747 
z
M 1178 3053 
Q 1316 3309 1558 3446 
Q 1800 3584 2119 3584 
Q 2750 3584 3112 3098 
Q 3475 2613 3475 1759 
Q 3475 894 3111 401 
Q 2747 -91 2113 -91 
Q 1800 -91 1561 45 
Q 1322 181 1178 441 
L 1178 0 
L 603 0 
L 603 4863 
L 1178 4863 
L 1178 3053 
z
" transform="scale(0.015625)"/>
       </defs>
       <use xlink:href="#DejaVuSansMono-53"/>
       <use xlink:href="#DejaVuSansMono-6b" x="60.205078"/>
       <use xlink:href="#DejaVuSansMono-61" x="120.410156"/>
       <use xlink:href="#DejaVuSansMono-6c" x="180.615234"/>
       <use xlink:href="#DejaVuSansMono-69" x="240.820312"/>
       <use xlink:href="#DejaVuSansMono-65" x="301.025391"/>
       <use xlink:href="#DejaVuSansMono-72" x="361.230469"/>
       <use xlink:href="#DejaVuSansMono-62" x="421.435547"/>
       <use xlink:href="#DejaVuSansMono-61" x="481.640625"/>
       <use xlink:href="#DejaVuSansMono-72" x="541.845703"/>
       <use xlink:href="#DejaVuSansMono-65" x="602.050781"/>
       <use xlink:href="#DejaVuSansMono-20" x="662.255859"/>
       <use xlink:href="#DejaVuSansMono-44" x="722.460938"/>
       <use xlink:href="#DejaVuSansMono-61" x="782.666016"/>
       <use xlink:href="#DejaVuSansMono-74" x="842.871094"/>
       <use xlink:href="#DejaVuSansMono-65" x="903.076172"/>
       <use xlink:href="#DejaVuSansMono-6e" x="963.28125"/>
       <use xlink:href="#DejaVuSansMono-62" x="1023.486328"/>
       <use xlink:href="#DejaVuSansMono-61" x="1083.691406"/>
       <use xlink:href="#DejaVuSansMono-6e" x="1143.896484"/>
       <use xlink:href="#DejaVuSansMono-6b" x="1204.101562"/>
       <use xlink:href="#DejaVuSansMono-73" x="1264.306641"/>
       <use xlink:href="#DejaVuSansMono-79" x="1324.511719"/>
       <use xlink:href="#DejaVuSansMono-73" x="1384.716797"/>
       <use xlink:href="#DejaVuSansMono-74" x="1444.921875"/>
       <use xlink:href="#DejaVuSansMono-65" x="1505.126953"/>
       <use xlink:href="#DejaVuSansMono-6d" x="1565.332031"/>
       <use xlink:href="#DejaVuSansMono-65" x="1625.537109"/>
      </g>
     </g>
    </g>
    <g id="xtick_6">
     <g id="line2d_11">
      <path d="M 512.38367 210.383557 
L 512.38367 18.182115 
" clip-path="url(#p45ada7fc41)" style="fill: none; stroke: #ffffff; stroke-width: 0.8; stroke-linecap: round"/>
     </g>
     <g id="line2d_12"/>
     <g id="text_6">
      <!-- Technische Informatik -->
      <g style="fill: #262626" transform="translate(421.516029 308.691109) rotate(-45) scale(0.1 -0.1)">
       <defs>
        <path id="DejaVuSansMono-54" d="M 147 4666 
L 3706 4666 
L 3706 4134 
L 2247 4134 
L 2247 0 
L 1613 0 
L 1613 4134 
L 147 4134 
L 147 4666 
z
" transform="scale(0.015625)"/>
       </defs>
       <use xlink:href="#DejaVuSansMono-54"/>
       <use xlink:href="#DejaVuSansMono-65" x="60.205078"/>
       <use xlink:href="#DejaVuSansMono-63" x="120.410156"/>
       <use xlink:href="#DejaVuSansMono-68" x="180.615234"/>
       <use xlink:href="#DejaVuSansMono-6e" x="240.820312"/>
       <use xlink:href="#DejaVuSansMono-69" x="301.025391"/>
       <use xlink:href="#DejaVuSansMono-73" x="361.230469"/>
       <use xlink:href="#DejaVuSansMono-63" x="421.435547"/>
       <use xlink:href="#DejaVuSansMono-68" x="481.640625"/>
       <use xlink:href="#DejaVuSansMono-65" x="541.845703"/>
       <use xlink:href="#DejaVuSansMono-20" x="602.050781"/>
       <use xlink:href="#DejaVuSansMono-49" x="662.255859"/>
       <use xlink:href="#DejaVuSansMono-6e" x="722.460938"/>
       <use xlink:href="#DejaVuSansMono-66" x="782.666016"/>
       <use xlink:href="#DejaVuSansMono-6f" x="842.871094"/>
       <use xlink:href="#DejaVuSansMono-72" x="903.076172"/>
       <use xlink:href="#DejaVuSansMono-6d" x="963.28125"/>
       <use xlink:href="#DejaVuSansMono-61" x="1023.486328"/>
       <use xlink:href="#DejaVuSansMono-74" x="1083.691406"/>
       <use xlink:href="#DejaVuSansMono-69" x="1143.896484"/>
       <use xlink:href="#DejaVuSansMono-6b" x="1204.101562"/>
      </g>
     </g>
    </g>
   </g>
   <g id="matplotlib.axis_2">
    <g id="ytick_1">
     <g id="line2d_13">
      <path d="M 12.520553 210.383557 
L 572.99976 210.383557 
" clip-path="url(#p45ada7fc41)" style="fill: none; stroke: #ffffff; stroke-width: 0.8; stroke-linecap: round"/>
     </g>
     <g id="line2d_14"/>
     <g id="text_7">
      <!-- 0 -->
      <g style="fill: #262626" transform="translate(3.00024 214.209338) scale(0.1 -0.1)">
       <defs>
        <path id="DejaVuSansMono-30" d="M 1509 2344 
Q 1509 2516 1629 2641 
Q 1750 2766 1919 2766 
Q 2094 2766 2219 2641 
Q 2344 2516 2344 2344 
Q 2344 2169 2220 2047 
Q 2097 1925 1919 1925 
Q 1744 1925 1626 2044 
Q 1509 2163 1509 2344 
z
M 1925 4250 
Q 1484 4250 1267 3775 
Q 1050 3300 1050 2328 
Q 1050 1359 1267 884 
Q 1484 409 1925 409 
Q 2369 409 2586 884 
Q 2803 1359 2803 2328 
Q 2803 3300 2586 3775 
Q 2369 4250 1925 4250 
z
M 1925 4750 
Q 2672 4750 3055 4137 
Q 3438 3525 3438 2328 
Q 3438 1134 3055 521 
Q 2672 -91 1925 -91 
Q 1178 -91 797 521 
Q 416 1134 416 2328 
Q 416 3525 797 4137 
Q 1178 4750 1925 4750 
z
" transform="scale(0.015625)"/>
       </defs>
       <use xlink:href="#DejaVuSansMono-30"/>
      </g>
     </g>
    </g>
    <g id="ytick_2">
     <g id="line2d_15">
      <path d="M 12.520553 118.859061 
L 572.99976 118.859061 
" clip-path="url(#p45ada7fc41)" style="fill: none; stroke: #ffffff; stroke-width: 0.8; stroke-linecap: round"/>
     </g>
     <g id="line2d_16"/>
     <g id="text_8">
      <!-- 1 -->
      <g style="fill: #262626" transform="translate(3.00024 122.684842) scale(0.1 -0.1)">
       <defs>
        <path id="DejaVuSansMono-31" d="M 844 531 
L 1825 531 
L 1825 4097 
L 769 3859 
L 769 4434 
L 1819 4666 
L 2450 4666 
L 2450 531 
L 3419 531 
L 3419 0 
L 844 0 
L 844 531 
z
" transform="scale(0.015625)"/>
       </defs>
       <use xlink:href="#DejaVuSansMono-31"/>
      </g>
     </g>
    </g>
    <g id="ytick_3">
     <g id="line2d_17">
      <path d="M 12.520553 27.334565 
L 572.99976 27.334565 
" clip-path="url(#p45ada7fc41)" style="fill: none; stroke: #ffffff; stroke-width: 0.8; stroke-linecap: round"/>
     </g>
     <g id="line2d_18"/>
     <g id="text_9">
      <!-- 2 -->
      <g style="fill: #262626" transform="translate(3.00024 31.160346) scale(0.1 -0.1)">
       <defs>
        <path id="DejaVuSansMono-32" d="M 1166 531 
L 3309 531 
L 3309 0 
L 475 0 
L 475 531 
Q 1059 1147 1496 1619 
Q 1934 2091 2100 2284 
Q 2413 2666 2522 2902 
Q 2631 3138 2631 3384 
Q 2631 3775 2401 3997 
Q 2172 4219 1772 4219 
Q 1488 4219 1175 4116 
Q 863 4013 513 3803 
L 513 4441 
Q 834 4594 1145 4672 
Q 1456 4750 1759 4750 
Q 2444 4750 2861 4386 
Q 3278 4022 3278 3431 
Q 3278 3131 3139 2831 
Q 3000 2531 2688 2169 
Q 2513 1966 2180 1606 
Q 1847 1247 1166 531 
z
" transform="scale(0.015625)"/>
       </defs>
       <use xlink:href="#DejaVuSansMono-32"/>
      </g>
     </g>
    </g>
   </g>
   <g id="patch_3">
    <path d="M 37.99688 210.383557 
L 108.276405 210.383557 
L 108.276405 118.859061 
L 37.99688 118.859061 
z
" clip-path="url(#p45ada7fc41)" style="fill: #ff8800"/>
   </g>
   <g id="patch_4">
    <path d="M 125.846286 210.383557 
L 196.12581 210.383557 
L 196.12581 118.859061 
L 125.846286 118.859061 
z
" clip-path="url(#p45ada7fc41)" style="fill: #ff8800"/>
   </g>
   <g id="patch_5">
    <path d="M 213.695691 210.383557 
L 283.975216 210.383557 
L 283.975216 118.859061 
L 213.695691 118.859061 
z
" clip-path="url(#p45ada7fc41)" style="fill: #ff8800"/>
   </g>
   <g id="patch_6">
    <path d="M 301.545097 210.383557 
L 371.824621 210.383557 
L 371.824621 118.859061 
L 301.545097 118.859061 
z
" clip-path="url(#p45ada7fc41)" style="fill: #ff8800"/>
   </g>
   <g id="patch_7">
    <path d="M 389.394502 210.383557 
L 459.674027 210.383557 
L 459.674027 27.334565 
L 389.394502 27.334565 
z
" clip-path="url(#p45ada7fc41)" style="fill: #ff8800"/>
   </g>
   <g id="patch_8">
    <path d="M 477.243908 210.383557 
L 547.523432 210.383557 
L 547.523432 27.334565 
L 477.243908 27.334565 
z
" clip-path="url(#p45ada7fc41)" style="fill: #ff8800"/>
   </g>
   <g id="patch_9">
    <path d="M 12.520553 210.383557 
L 12.520553 18.182115 
" style="fill: none"/>
   </g>
   <g id="patch_10">
    <path d="M 572.99976 210.383557 
L 572.99976 18.182115 
" style="fill: none"/>
   </g>
   <g id="patch_11">
    <path d="M 12.520552 210.383557 
L 572.99976 210.383557 
" style="fill: none"/>
   </g>
   <g id="patch_12">
    <path d="M 12.520552 18.182115 
L 572.99976 18.182115 
" style="fill: none"/>
   </g>
   <g id="text_10">
    <!-- 1 -->
    <g style="fill: #262626" transform="translate(70.126486 148.779373) scale(0.1 -0.1)">
     <defs>
      <path id="DejaVuSansMono-Bold-31" d="M 588 813 
L 1619 813 
L 1619 3841 
L 659 3603 
L 659 4434 
L 1625 4666 
L 2516 4666 
L 2516 813 
L 3547 813 
L 3547 0 
L 588 0 
L 588 813 
z
" transform="scale(0.015625)"/>
     </defs>
     <use xlink:href="#DejaVuSansMono-Bold-31"/>
    </g>
   </g>
   <g id="text_11">
    <!-- 1 -->
    <g style="fill: #262626" transform="translate(157.975892 148.779373) scale(0.1 -0.1)">
     <use xlink:href="#DejaVuSansMono-Bold-31"/>
    </g>
   </g>
   <g id="text_12">
    <!-- 1 -->
    <g style="fill: #262626" transform="translate(245.825297 148.779373) scale(0.1 -0.1)">
     <use xlink:href="#DejaVuSansMono-Bold-31"/>
    </g>
   </g>
   <g id="text_13">
    <!-- 1 -->
    <g style="fill: #262626" transform="translate(333.674703 148.779373) scale(0.1 -0.1)">
     <use xlink:href="#DejaVuSansMono-Bold-31"/>
    </g>
   </g>
   <g id="text_14">
    <!-- 2 -->
    <g style="fill: #262626" transform="translate(421.524108 57.254877) scale(0.1 -0.1)">
     <defs>
      <path id="DejaVuSansMono-Bold-32" d="M 1356 813 
L 3322 813 
L 3322 0 
L 359 0 
L 359 788 
L 859 1319 
Q 1750 2266 1941 2484 
Q 2175 2753 2278 2961 
Q 2381 3169 2381 3372 
Q 2381 3684 2192 3854 
Q 2003 4025 1656 4025 
Q 1409 4025 1101 3926 
Q 794 3828 459 3641 
L 459 4500 
Q 794 4622 1114 4686 
Q 1434 4750 1728 4750 
Q 2469 4750 2892 4404 
Q 3316 4059 3316 3463 
Q 3316 3188 3223 2947 
Q 3131 2706 2906 2413 
Q 2741 2200 1997 1456 
Q 1594 1053 1356 813 
z
" transform="scale(0.015625)"/>
     </defs>
     <use xlink:href="#DejaVuSansMono-Bold-32"/>
    </g>
   </g>
   <g id="text_15">
    <!-- 2 -->
    <g style="fill: #262626" transform="translate(509.373514 57.254877) scale(0.1 -0.1)">
     <use xlink:href="#DejaVuSansMono-Bold-32"/>
    </g>
   </g>
   <g id="text_16">
    <!-- #Stef by Chair -->
    <g style="fill: #262626" transform="translate(242.189531 12.182115) scale(0.12 -0.12)">
     <defs>
      <path id="DejaVuSansMono-23" d="M 2138 4594 
L 1813 3297 
L 2578 3297 
L 2906 4594 
L 3406 4594 
L 3078 3297 
L 3841 3297 
L 3841 2816 
L 2963 2816 
L 2700 1772 
L 3481 1772 
L 3481 1294 
L 2578 1294 
L 2253 0 
L 1753 0 
L 2081 1294 
L 1313 1294 
L 984 0 
L 488 0 
L 813 1294 
L 6 1294 
L 6 1772 
L 934 1772 
L 1197 2816 
L 366 2816 
L 366 3297 
L 1313 3297 
L 1638 4594 
L 2138 4594 
z
M 2463 2816 
L 1697 2816 
L 1434 1772 
L 2203 1772 
L 2463 2816 
z
" transform="scale(0.015625)"/>
     </defs>
     <use xlink:href="#DejaVuSansMono-23"/>
     <use xlink:href="#DejaVuSansMono-53" x="60.205078"/>
     <use xlink:href="#DejaVuSansMono-74" x="120.410156"/>
     <use xlink:href="#DejaVuSansMono-65" x="180.615234"/>
     <use xlink:href="#DejaVuSansMono-66" x="240.820312"/>
     <use xlink:href="#DejaVuSansMono-20" x="301.025391"/>
     <use xlink:href="#DejaVuSansMono-62" x="361.230469"/>
     <use xlink:href="#DejaVuSansMono-79" x="421.435547"/>
     <use xlink:href="#DejaVuSansMono-20" x="481.640625"/>
     <use xlink:href="#DejaVuSansMono-43" x="541.845703"/>
     <use xlink:href="#DejaVuSansMono-68" x="602.050781"/>
     <use xlink:href="#DejaVuSansMono-61" x="662.255859"/>
     <use xlink:href="#DejaVuSansMono-69" x="722.460938"/>
     <use xlink:href="#DejaVuSansMono-72" x="782.666016"/>
    </g>
   </g>
  </g>
 </g>
 <defs>
  <clipPath id="p45ada7fc41">
   <rect x="12.520553" y="18.182115" width="560.479208" height="192.201442"/>
  </clipPath>
 </defs>
</svg>
